# MagicaVoxel @ Ephtracy

# material
mtllib BasicPistol.mtl
usemtl palette

# normals
vn -1 0 0
vn 1 0 0
vn 0 0 1
vn 0 0 -1
vn 0 -1 0
vn 0 1 0

# texcoords
vt 0.841797 0.5
vt 0.982422 0.5
vt 0.986328 0.5

# verts
v -3 0 -12
v -3 0 -19
v -3 2 -18
v -3 2 -19
v -3 3 -11
v -3 3 -12
v -3 4 -17
v -3 4 -18
v -3 6 -10
v -3 6 -11
v -3 6 -16
v -3 6 -17
v -3 8 -9
v -3 8 -10
v -3 8 -15
v -3 8 -16
v -3 10 -8
v -3 10 -9
v -3 10 -14
v -3 10 -15
v -3 12 -13
v -3 12 -14
v -3 16 -6
v -3 16 -8
v -3 16 -9
v -3 16 -12
v -3 16 -13
v -3 16 -16
v -3 17 10
v -3 17 8
v -3 17 -6
v -3 17 -8
v -3 17 -9
v -3 17 -12
v -3 17 -13
v -3 18 -10
v -3 18 -11
v -3 19 -10
v -3 19 -11
v -3 19 -15
v -3 19 -16
v -3 20 -8
v -3 20 -9
v -3 20 -13
v -3 20 -14
v -3 20 -15
v -3 21 10
v -3 21 8
v -3 21 -6
v -3 21 -9
v -3 21 -14
v -3 22 -6
v -3 22 -9
v -2 16 10
v -2 16 8
v -2 16 -6
v -2 17 10
v -2 17 8
v -2 17 -6
v -2 21 10
v -2 21 8
v -2 21 -6
v -2 22 10
v -2 22 8
v -2 22 -6
v -2 22 -7
v -2 24 -6
v -2 24 -7
v -1 12 -0
v -1 12 -8
v -1 13 -1
v -1 13 -8
v -1 16 -0
v -1 16 -1
v -1 22 9
v -1 22 8
v -1 23 9
v -1 23 8
v 1 17 10
v 1 17 8
v 1 17 -0
v 1 18 10
v 1 18 8
v 1 18 -0
v 1 20 10
v 1 20 8
v 1 20 -0
v 1 21 10
v 1 21 8
v 1 21 -0
v 1 23 -6
v 1 23 -7
v 1 24 -6
v 1 24 -7
v 2 18 10
v 2 18 8
v 2 18 -0
v 2 20 10
v 2 20 8
v 2 20 -0
v -2 18 10
v -2 18 8
v -2 18 -0
v -2 20 10
v -2 20 8
v -2 20 3
v -2 20 2
v -2 20 -0
v -2 21 3
v -2 21 2
v -1 17 10
v -1 17 8
v -1 17 -0
v -1 18 10
v -1 18 8
v -1 18 -0
v -1 20 10
v -1 20 8
v -1 20 3
v -1 20 2
v -1 20 -0
v -1 21 10
v -1 21 8
v -1 21 3
v -1 21 2
v -1 21 -0
v -1 23 -6
v -1 23 -7
v -1 24 -6
v -1 24 -7
v 1 12 -0
v 1 12 -8
v 1 13 -1
v 1 13 -8
v 1 16 -0
v 1 16 -1
v 1 22 9
v 1 22 8
v 1 23 9
v 1 23 8
v 2 16 10
v 2 16 8
v 2 16 -6
v 2 17 10
v 2 17 8
v 2 17 -6
v 2 21 10
v 2 21 8
v 2 21 -6
v 2 22 10
v 2 22 8
v 2 22 -6
v 2 22 -7
v 2 24 -6
v 2 24 -7
v 3 0 -12
v 3 0 -19
v 3 2 -18
v 3 2 -19
v 3 3 -11
v 3 3 -12
v 3 4 -17
v 3 4 -18
v 3 6 -10
v 3 6 -11
v 3 6 -16
v 3 6 -17
v 3 8 -9
v 3 8 -10
v 3 8 -15
v 3 8 -16
v 3 10 -8
v 3 10 -9
v 3 10 -14
v 3 10 -15
v 3 12 -13
v 3 12 -14
v 3 16 -6
v 3 16 -8
v 3 16 -9
v 3 16 -12
v 3 16 -13
v 3 16 -16
v 3 17 10
v 3 17 8
v 3 17 -6
v 3 17 -8
v 3 17 -9
v 3 17 -12
v 3 17 -13
v 3 18 -10
v 3 18 -11
v 3 19 -10
v 3 19 -11
v 3 19 -15
v 3 19 -16
v 3 20 -8
v 3 20 -9
v 3 20 -13
v 3 20 -14
v 3 20 -15
v 3 21 10
v 3 21 8
v 3 21 -6
v 3 21 -9
v 3 21 -14
v 3 22 -6
v 3 22 -9
v -3 17 10
v -3 21 10
v -2 16 10
v -2 17 10
v -2 18 10
v -2 20 10
v -2 21 10
v -2 22 10
v -1 17 10
v -1 18 10
v -1 20 10
v -1 21 10
v 1 17 10
v 1 18 10
v 1 20 10
v 1 21 10
v 2 16 10
v 2 17 10
v 2 18 10
v 2 20 10
v 2 21 10
v 2 22 10
v 3 17 10
v 3 21 10
v -1 22 9
v -1 23 9
v 1 22 9
v 1 23 9
v -2 20 2
v -2 21 2
v -1 20 2
v -1 21 2
v -2 18 -0
v -2 20 -0
v -1 12 -0
v -1 16 -0
v -1 17 -0
v -1 18 -0
v -1 20 -0
v -1 21 -0
v 1 12 -0
v 1 16 -0
v 1 17 -0
v 1 18 -0
v 1 20 -0
v 1 21 -0
v 2 18 -0
v 2 20 -0
v -3 16 -6
v -3 17 -6
v -3 21 -6
v -3 22 -6
v -2 16 -6
v -2 17 -6
v -2 21 -6
v -2 22 -6
v -2 24 -6
v -1 23 -6
v -1 24 -6
v 1 23 -6
v 1 24 -6
v 2 16 -6
v 2 17 -6
v 2 21 -6
v 2 22 -6
v 2 24 -6
v 3 16 -6
v 3 17 -6
v 3 21 -6
v 3 22 -6
v -3 10 -8
v -3 16 -8
v -1 12 -8
v -1 13 -8
v 1 12 -8
v 1 13 -8
v 3 10 -8
v 3 16 -8
v -3 8 -9
v -3 10 -9
v 3 8 -9
v 3 10 -9
v -3 6 -10
v -3 8 -10
v 3 6 -10
v 3 8 -10
v -3 3 -11
v -3 6 -11
v 3 3 -11
v 3 6 -11
v -3 0 -12
v -3 3 -12
v 3 0 -12
v 3 3 -12
v -1 22 8
v -1 23 8
v 1 22 8
v 1 23 8
v -2 20 3
v -2 21 3
v -1 20 3
v -1 21 3
v -1 13 -1
v -1 16 -1
v 1 13 -1
v 1 16 -1
v -2 22 -7
v -2 24 -7
v -1 23 -7
v -1 24 -7
v 1 23 -7
v 1 24 -7
v 2 22 -7
v 2 24 -7
v -3 21 -9
v -3 22 -9
v 3 21 -9
v 3 22 -9
v -3 12 -13
v -3 16 -13
v 3 12 -13
v 3 16 -13
v -3 10 -14
v -3 12 -14
v -3 20 -14
v -3 21 -14
v 3 10 -14
v 3 12 -14
v 3 20 -14
v 3 21 -14
v -3 8 -15
v -3 10 -15
v -3 19 -15
v -3 20 -15
v 3 8 -15
v 3 10 -15
v 3 19 -15
v 3 20 -15
v -3 6 -16
v -3 8 -16
v -3 16 -16
v -3 19 -16
v 3 6 -16
v 3 8 -16
v 3 16 -16
v 3 19 -16
v -3 4 -17
v -3 6 -17
v 3 4 -17
v 3 6 -17
v -3 2 -18
v -3 4 -18
v 3 2 -18
v 3 4 -18
v -3 0 -19
v -3 2 -19
v 3 0 -19
v 3 2 -19
v -3 0 -12
v 3 0 -12
v -3 0 -19
v 3 0 -19
v -3 3 -11
v 3 3 -11
v -3 3 -12
v 3 3 -12
v -3 6 -10
v 3 6 -10
v -3 6 -11
v 3 6 -11
v -3 8 -9
v 3 8 -9
v -3 8 -10
v 3 8 -10
v -3 10 -8
v 3 10 -8
v -3 10 -9
v 3 10 -9
v -1 12 -0
v 1 12 -0
v -1 12 -8
v 1 12 -8
v -2 16 10
v 2 16 10
v -2 16 8
v 2 16 8
v -1 16 -0
v 1 16 -0
v -1 16 -1
v 1 16 -1
v -3 16 -6
v -2 16 -6
v 2 16 -6
v 3 16 -6
v -3 16 -8
v 3 16 -8
v -3 16 -13
v 3 16 -13
v -3 16 -16
v 3 16 -16
v -3 17 10
v -2 17 10
v 2 17 10
v 3 17 10
v -3 17 8
v -2 17 8
v 2 17 8
v 3 17 8
v -3 17 -6
v -2 17 -6
v 2 17 -6
v 3 17 -6
v -2 20 10
v -1 20 10
v 1 20 10
v 2 20 10
v -2 20 8
v -1 20 8
v 1 20 8
v 2 20 8
v -2 20 3
v -1 20 3
v -2 20 2
v -1 20 2
v -2 20 -0
v -1 20 -0
v 1 20 -0
v 2 20 -0
v -1 21 10
v 1 21 10
v -1 21 8
v 1 21 8
v -2 21 3
v -1 21 3
v -2 21 2
v -1 21 2
v -1 21 -0
v 1 21 -0
v -3 2 -18
v 3 2 -18
v -3 2 -19
v 3 2 -19
v -3 4 -17
v 3 4 -17
v -3 4 -18
v 3 4 -18
v -3 6 -16
v 3 6 -16
v -3 6 -17
v 3 6 -17
v -3 8 -15
v 3 8 -15
v -3 8 -16
v 3 8 -16
v -3 10 -14
v 3 10 -14
v -3 10 -15
v 3 10 -15
v -3 12 -13
v 3 12 -13
v -3 12 -14
v 3 12 -14
v -1 13 -1
v 1 13 -1
v -1 13 -8
v 1 13 -8
v -1 17 10
v 1 17 10
v -1 17 8
v 1 17 8
v -1 17 -0
v 1 17 -0
v -2 18 10
v -1 18 10
v 1 18 10
v 2 18 10
v -2 18 8
v -1 18 8
v 1 18 8
v 2 18 8
v -2 18 -0
v -1 18 -0
v 1 18 -0
v 2 18 -0
v -3 19 -15
v 3 19 -15
v -3 19 -16
v 3 19 -16
v -3 20 -14
v 3 20 -14
v -3 20 -15
v 3 20 -15
v -3 21 10
v -2 21 10
v 2 21 10
v 3 21 10
v -3 21 8
v -2 21 8
v 2 21 8
v 3 21 8
v -3 21 -6
v -2 21 -6
v 2 21 -6
v 3 21 -6
v -3 21 -9
v 3 21 -9
v -3 21 -14
v 3 21 -14
v -2 22 10
v 2 22 10
v -1 22 9
v 1 22 9
v -2 22 8
v -1 22 8
v 1 22 8
v 2 22 8
v -3 22 -6
v -2 22 -6
v 2 22 -6
v 3 22 -6
v -2 22 -7
v 2 22 -7
v -3 22 -9
v 3 22 -9
v -1 23 9
v 1 23 9
v -1 23 8
v 1 23 8
v -1 23 -6
v 1 23 -6
v -1 23 -7
v 1 23 -7
v -2 24 -6
v -1 24 -6
v 1 24 -6
v 2 24 -6
v -2 24 -7
v -1 24 -7
v 1 24 -7
v 2 24 -7

# faces
f 3/3/1 2/3/1 1/3/1
f 4/3/1 2/3/1 3/3/1
f 6/3/1 3/3/1 1/3/1
f 7/3/1 3/3/1 6/3/1
f 7/3/1 6/3/1 5/3/1
f 8/3/1 3/3/1 7/3/1
f 10/3/1 7/3/1 5/3/1
f 11/3/1 7/3/1 10/3/1
f 12/3/1 7/3/1 11/3/1
f 14/3/1 10/3/1 9/3/1
f 14/3/1 11/3/1 10/3/1
f 15/3/1 11/3/1 14/3/1
f 16/3/1 11/3/1 15/3/1
f 18/3/1 14/3/1 13/3/1
f 18/3/1 15/3/1 14/3/1
f 19/3/1 15/3/1 18/3/1
f 20/3/1 15/3/1 19/3/1
f 21/3/1 18/3/1 17/3/1
f 21/3/1 19/3/1 18/3/1
f 22/3/1 19/3/1 21/3/1
f 24/3/1 21/3/1 17/3/1
f 25/3/1 21/3/1 24/3/1
f 26/3/1 21/3/1 25/3/1
f 27/3/1 21/3/1 26/3/1
f 31/3/1 24/3/1 23/3/1
f 31/3/1 25/3/1 24/3/1
f 32/3/1 25/3/1 31/3/1
f 33/1/1 26/1/1 25/1/1
f 33/3/1 25/3/1 32/3/1
f 34/2/1 27/2/1 26/2/1
f 34/1/1 26/1/1 33/1/1
f 34/2/1 28/2/1 27/2/1
f 35/2/1 28/2/1 34/2/1
f 36/1/1 33/1/1 32/1/1
f 36/1/1 34/1/1 33/1/1
f 36/1/1 35/1/1 34/1/1
f 37/1/1 35/1/1 36/1/1
f 38/1/1 36/1/1 32/1/1
f 38/2/1 37/2/1 36/2/1
f 39/1/1 35/1/1 37/1/1
f 39/2/1 37/2/1 38/2/1
f 40/2/1 28/2/1 35/2/1
f 41/2/1 28/2/1 40/2/1
f 42/3/1 32/3/1 31/3/1
f 42/3/1 31/3/1 30/3/1
f 42/1/1 38/1/1 32/1/1
f 42/1/1 39/1/1 38/1/1
f 43/1/1 39/1/1 42/1/1
f 44/1/1 35/1/1 39/1/1
f 44/1/1 39/1/1 43/1/1
f 44/2/1 40/2/1 35/2/1
f 45/2/1 40/2/1 44/2/1
f 46/2/1 40/2/1 45/2/1
f 47/1/1 30/1/1 29/1/1
f 48/3/1 43/3/1 42/3/1
f 48/1/1 30/1/1 47/1/1
f 48/3/1 42/3/1 30/3/1
f 49/3/1 43/3/1 48/3/1
f 50/2/1 45/2/1 44/2/1
f 50/3/1 43/3/1 49/3/1
f 50/2/1 44/2/1 43/2/1
f 51/2/1 45/2/1 50/2/1
f 52/3/1 50/3/1 49/3/1
f 53/3/1 50/3/1 52/3/1
f 57/1/1 55/1/1 54/1/1
f 58/3/1 56/3/1 55/3/1
f 58/1/1 55/1/1 57/1/1
f 59/3/1 56/3/1 58/3/1
f 63/1/1 61/1/1 60/1/1
f 64/3/1 62/3/1 61/3/1
f 64/1/1 61/1/1 63/1/1
f 65/3/1 62/3/1 64/3/1
f 67/3/1 66/3/1 65/3/1
f 68/3/1 66/3/1 67/3/1
f 71/2/1 70/2/1 69/2/1
f 72/2/1 70/2/1 71/2/1
f 73/2/1 71/2/1 69/2/1
f 74/2/1 71/2/1 73/2/1
f 77/1/1 76/1/1 75/1/1
f 78/1/1 76/1/1 77/1/1
f 82/1/1 80/1/1 79/1/1
f 83/3/1 81/3/1 80/3/1
f 83/1/1 80/1/1 82/1/1
f 84/3/1 81/3/1 83/3/1
f 88/1/1 86/1/1 85/1/1
f 89/3/1 87/3/1 86/3/1
f 89/1/1 86/1/1 88/1/1
f 90/3/1 87/3/1 89/3/1
f 93/3/1 92/3/1 91/3/1
f 94/3/1 92/3/1 93/3/1
f 98/1/1 96/1/1 95/1/1
f 99/3/1 97/3/1 96/3/1
f 99/1/1 96/1/1 98/1/1
f 100/3/1 97/3/1 99/3/1
f 101/1/2 102/1/2 104/1/2
f 102/3/2 103/3/2 105/3/2
f 104/1/2 102/1/2 105/1/2
f 105/3/2 103/3/2 106/3/2
f 106/3/2 103/3/2 107/3/2
f 107/3/2 103/3/2 108/3/2
f 106/3/2 107/3/2 109/3/2
f 109/3/2 107/3/2 110/3/2
f 111/1/2 112/1/2 114/1/2
f 112/3/2 113/3/2 115/3/2
f 114/1/2 112/1/2 115/1/2
f 115/3/2 113/3/2 116/3/2
f 117/1/2 118/1/2 122/1/2
f 118/3/2 119/3/2 123/3/2
f 122/1/2 118/1/2 123/1/2
f 123/3/2 119/3/2 124/3/2
f 120/3/2 121/3/2 125/3/2
f 125/3/2 121/3/2 126/3/2
f 127/3/2 128/3/2 129/3/2
f 129/3/2 128/3/2 130/3/2
f 131/2/2 132/2/2 133/2/2
f 133/2/2 132/2/2 134/2/2
f 131/2/2 133/2/2 135/2/2
f 135/2/2 133/2/2 136/2/2
f 137/1/2 138/1/2 139/1/2
f 139/1/2 138/1/2 140/1/2
f 141/1/2 142/1/2 144/1/2
f 142/3/2 143/3/2 145/3/2
f 144/1/2 142/1/2 145/1/2
f 145/3/2 143/3/2 146/3/2
f 147/1/2 148/1/2 150/1/2
f 148/3/2 149/3/2 151/3/2
f 150/1/2 148/1/2 151/1/2
f 151/3/2 149/3/2 152/3/2
f 152/3/2 153/3/2 154/3/2
f 154/3/2 153/3/2 155/3/2
f 156/3/2 157/3/2 158/3/2
f 158/3/2 157/3/2 159/3/2
f 156/3/2 158/3/2 161/3/2
f 161/3/2 158/3/2 162/3/2
f 160/3/2 161/3/2 162/3/2
f 162/3/2 158/3/2 163/3/2
f 160/3/2 162/3/2 165/3/2
f 165/3/2 162/3/2 166/3/2
f 166/3/2 162/3/2 167/3/2
f 164/3/2 165/3/2 169/3/2
f 165/3/2 166/3/2 169/3/2
f 169/3/2 166/3/2 170/3/2
f 170/3/2 166/3/2 171/3/2
f 168/3/2 169/3/2 173/3/2
f 169/3/2 170/3/2 173/3/2
f 173/3/2 170/3/2 174/3/2
f 174/3/2 170/3/2 175/3/2
f 172/3/2 173/3/2 176/3/2
f 173/3/2 174/3/2 176/3/2
f 176/3/2 174/3/2 177/3/2
f 172/3/2 176/3/2 179/3/2
f 179/3/2 176/3/2 180/3/2
f 180/3/2 176/3/2 181/3/2
f 181/3/2 176/3/2 182/3/2
f 178/3/2 179/3/2 186/3/2
f 179/3/2 180/3/2 186/3/2
f 186/3/2 180/3/2 187/3/2
f 180/1/2 181/1/2 188/1/2
f 187/3/2 180/3/2 188/3/2
f 181/2/2 182/2/2 189/2/2
f 188/1/2 181/1/2 189/1/2
f 182/2/2 183/2/2 189/2/2
f 189/2/2 183/2/2 190/2/2
f 187/1/2 188/1/2 191/1/2
f 188/1/2 189/1/2 191/1/2
f 189/1/2 190/1/2 191/1/2
f 191/1/2 190/1/2 192/1/2
f 187/1/2 191/1/2 193/1/2
f 191/2/2 192/2/2 193/2/2
f 192/1/2 190/1/2 194/1/2
f 193/2/2 192/2/2 194/2/2
f 190/2/2 183/2/2 195/2/2
f 195/2/2 183/2/2 196/2/2
f 186/3/2 187/3/2 197/3/2
f 185/3/2 186/3/2 197/3/2
f 187/1/2 193/1/2 197/1/2
f 193/1/2 194/1/2 197/1/2
f 197/1/2 194/1/2 198/1/2
f 194/1/2 190/1/2 199/1/2
f 198/1/2 194/1/2 199/1/2
f 190/2/2 195/2/2 199/2/2
f 199/2/2 195/2/2 200/2/2
f 200/2/2 195/2/2 201/2/2
f 184/1/2 185/1/2 202/1/2
f 197/3/2 198/3/2 203/3/2
f 202/1/2 185/1/2 203/1/2
f 185/3/2 197/3/2 203/3/2
f 203/3/2 198/3/2 204/3/2
f 199/2/2 200/2/2 205/2/2
f 204/3/2 198/3/2 205/3/2
f 198/2/2 199/2/2 205/2/2
f 205/2/2 200/2/2 206/2/2
f 204/3/2 205/3/2 207/3/2
f 207/3/2 205/3/2 208/3/2
f 212/1/3 210/1/3 209/1/3
f 213/1/3 210/1/3 212/1/3
f 214/1/3 210/1/3 213/1/3
f 215/1/3 210/1/3 214/1/3
f 217/1/3 212/1/3 211/1/3
f 217/1/3 213/1/3 212/1/3
f 218/1/3 213/1/3 217/1/3
f 219/1/3 216/1/3 215/1/3
f 219/1/3 215/1/3 214/1/3
f 220/1/3 216/1/3 219/1/3
f 221/1/3 217/1/3 211/1/3
f 224/1/3 216/1/3 220/1/3
f 225/1/3 222/1/3 221/1/3
f 225/1/3 221/1/3 211/1/3
f 226/1/3 222/1/3 225/1/3
f 227/1/3 222/1/3 226/1/3
f 228/1/3 224/1/3 223/1/3
f 229/1/3 216/1/3 224/1/3
f 229/1/3 224/1/3 228/1/3
f 230/1/3 216/1/3 229/1/3
f 231/1/3 227/1/3 226/1/3
f 231/1/3 228/1/3 227/1/3
f 231/1/3 229/1/3 228/1/3
f 232/1/3 229/1/3 231/1/3
f 235/1/3 234/1/3 233/1/3
f 236/1/3 234/1/3 235/1/3
f 239/3/3 238/3/3 237/3/3
f 240/3/3 238/3/3 239/3/3
f 246/3/3 242/3/3 241/3/3
f 247/3/3 242/3/3 246/3/3
f 249/2/3 244/2/3 243/2/3
f 250/2/3 244/2/3 249/2/3
f 251/3/3 248/3/3 247/3/3
f 251/3/3 246/3/3 245/3/3
f 251/3/3 247/3/3 246/3/3
f 252/3/3 248/3/3 251/3/3
f 253/3/3 248/3/3 252/3/3
f 254/3/3 248/3/3 253/3/3
f 255/3/3 253/3/3 252/3/3
f 256/3/3 253/3/3 255/3/3
f 261/3/3 258/3/3 257/3/3
f 262/3/3 258/3/3 261/3/3
f 263/3/3 260/3/3 259/3/3
f 264/3/3 260/3/3 263/3/3
f 266/3/3 265/3/3 264/3/3
f 267/3/3 265/3/3 266/3/3
f 268/3/3 266/3/3 264/3/3
f 273/3/3 268/3/3 264/3/3
f 273/3/3 269/3/3 268/3/3
f 274/3/3 269/3/3 273/3/3
f 275/3/3 271/3/3 270/3/3
f 276/3/3 271/3/3 275/3/3
f 277/3/3 273/3/3 272/3/3
f 278/3/3 273/3/3 277/3/3
f 281/3/3 280/3/3 279/3/3
f 282/3/3 280/3/3 281/3/3
f 283/3/3 281/3/3 279/3/3
f 284/3/3 280/3/3 282/3/3
f 285/3/3 283/3/3 279/3/3
f 285/3/3 284/3/3 283/3/3
f 286/3/3 280/3/3 284/3/3
f 286/3/3 284/3/3 285/3/3
f 289/3/3 288/3/3 287/3/3
f 290/3/3 288/3/3 289/3/3
f 293/3/3 292/3/3 291/3/3
f 294/3/3 292/3/3 293/3/3
f 297/3/3 296/3/3 295/3/3
f 298/3/3 296/3/3 297/3/3
f 301/3/3 300/3/3 299/3/3
f 302/3/3 300/3/3 301/3/3
f 303/1/4 304/1/4 305/1/4
f 305/1/4 304/1/4 306/1/4
f 307/3/4 308/3/4 309/3/4
f 309/3/4 308/3/4 310/3/4
f 311/2/4 312/2/4 313/2/4
f 313/2/4 312/2/4 314/2/4
f 315/3/4 316/3/4 317/3/4
f 317/3/4 316/3/4 318/3/4
f 315/3/4 317/3/4 319/3/4
f 315/3/4 319/3/4 321/3/4
f 319/3/4 320/3/4 321/3/4
f 321/3/4 320/3/4 322/3/4
f 323/3/4 324/3/4 325/3/4
f 325/3/4 324/3/4 326/3/4
f 327/3/4 328/3/4 329/3/4
f 329/3/4 328/3/4 330/3/4
f 331/3/4 332/3/4 335/3/4
f 335/3/4 332/3/4 336/3/4
f 333/2/4 334/2/4 337/2/4
f 337/2/4 334/2/4 338/2/4
f 339/3/4 340/3/4 343/3/4
f 343/3/4 340/3/4 344/3/4
f 341/2/4 342/2/4 345/2/4
f 345/2/4 342/2/4 346/2/4
f 347/3/4 348/3/4 351/3/4
f 351/3/4 348/3/4 352/3/4
f 349/2/4 350/2/4 353/2/4
f 353/2/4 350/2/4 354/2/4
f 355/3/4 356/3/4 357/3/4
f 357/3/4 356/3/4 358/3/4
f 359/3/4 360/3/4 361/3/4
f 361/3/4 360/3/4 362/3/4
f 363/3/4 364/3/4 365/3/4
f 365/3/4 364/3/4 366/3/4
f 369/3/5 368/3/5 367/3/5
f 370/3/5 368/3/5 369/3/5
f 373/3/5 372/3/5 371/3/5
f 374/3/5 372/3/5 373/3/5
f 377/3/5 376/3/5 375/3/5
f 378/3/5 376/3/5 377/3/5
f 381/3/5 380/3/5 379/3/5
f 382/3/5 380/3/5 381/3/5
f 385/3/5 384/3/5 383/3/5
f 386/3/5 384/3/5 385/3/5
f 389/2/5 388/2/5 387/2/5
f 390/2/5 388/2/5 389/2/5
f 393/1/5 392/1/5 391/1/5
f 394/1/5 392/1/5 393/1/5
f 395/3/5 394/3/5 393/3/5
f 396/3/5 394/3/5 395/3/5
f 397/3/5 395/3/5 393/3/5
f 398/3/5 394/3/5 396/3/5
f 400/3/5 397/3/5 393/3/5
f 400/3/5 398/3/5 397/3/5
f 401/3/5 394/3/5 398/3/5
f 401/3/5 398/3/5 400/3/5
f 403/3/5 401/3/5 400/3/5
f 403/3/5 402/3/5 401/3/5
f 403/3/5 400/3/5 399/3/5
f 404/3/5 402/3/5 403/3/5
f 407/2/5 406/2/5 405/2/5
f 408/2/5 406/2/5 407/2/5
f 413/1/5 410/1/5 409/1/5
f 414/1/5 410/1/5 413/1/5
f 415/1/5 412/1/5 411/1/5
f 416/1/5 412/1/5 415/1/5
f 417/3/5 414/3/5 413/3/5
f 418/3/5 414/3/5 417/3/5
f 419/3/5 416/3/5 415/3/5
f 420/3/5 416/3/5 419/3/5
f 425/1/5 422/1/5 421/1/5
f 426/1/5 422/1/5 425/1/5
f 427/1/5 424/1/5 423/1/5
f 428/1/5 424/1/5 427/1/5
f 429/3/5 426/3/5 425/3/5
f 430/3/5 426/3/5 429/3/5
f 433/3/5 432/3/5 431/3/5
f 434/3/5 432/3/5 433/3/5
f 435/3/5 428/3/5 427/3/5
f 436/3/5 428/3/5 435/3/5
f 439/1/5 438/1/5 437/1/5
f 440/1/5 438/1/5 439/1/5
f 442/3/5 440/3/5 439/3/5
f 443/3/5 442/3/5 441/3/5
f 444/3/5 440/3/5 442/3/5
f 444/3/5 442/3/5 443/3/5
f 445/3/5 440/3/5 444/3/5
f 446/3/5 440/3/5 445/3/5
f 447/3/6 448/3/6 449/3/6
f 449/3/6 448/3/6 450/3/6
f 451/3/6 452/3/6 453/3/6
f 453/3/6 452/3/6 454/3/6
f 455/3/6 456/3/6 457/3/6
f 457/3/6 456/3/6 458/3/6
f 459/3/6 460/3/6 461/3/6
f 461/3/6 460/3/6 462/3/6
f 463/3/6 464/3/6 465/3/6
f 465/3/6 464/3/6 466/3/6
f 467/3/6 468/3/6 469/3/6
f 469/3/6 468/3/6 470/3/6
f 471/2/6 472/2/6 473/2/6
f 473/2/6 472/2/6 474/2/6
f 475/1/6 476/1/6 477/1/6
f 477/1/6 476/1/6 478/1/6
f 477/3/6 478/3/6 479/3/6
f 479/3/6 478/3/6 480/3/6
f 481/1/6 482/1/6 485/1/6
f 485/1/6 482/1/6 486/1/6
f 483/1/6 484/1/6 487/1/6
f 487/1/6 484/1/6 488/1/6
f 485/3/6 486/3/6 489/3/6
f 489/3/6 486/3/6 490/3/6
f 487/3/6 488/3/6 491/3/6
f 491/3/6 488/3/6 492/3/6
f 493/2/6 494/2/6 495/2/6
f 495/2/6 494/2/6 496/2/6
f 497/2/6 498/2/6 499/2/6
f 499/2/6 498/2/6 500/2/6
f 501/1/6 502/1/6 505/1/6
f 505/1/6 502/1/6 506/1/6
f 503/1/6 504/1/6 507/1/6
f 507/1/6 504/1/6 508/1/6
f 505/3/6 506/3/6 509/3/6
f 509/3/6 506/3/6 510/3/6
f 507/3/6 508/3/6 511/3/6
f 511/3/6 508/3/6 512/3/6
f 513/2/6 514/2/6 515/2/6
f 515/2/6 514/2/6 516/2/6
f 517/1/6 518/1/6 519/1/6
f 519/1/6 518/1/6 520/1/6
f 517/1/6 519/1/6 521/1/6
f 521/1/6 519/1/6 522/1/6
f 520/1/6 518/1/6 523/1/6
f 523/1/6 518/1/6 524/1/6
f 521/3/6 522/3/6 526/3/6
f 522/3/6 523/3/6 526/3/6
f 523/3/6 524/3/6 526/3/6
f 526/3/6 524/3/6 527/3/6
f 525/3/6 526/3/6 529/3/6
f 527/3/6 528/3/6 530/3/6
f 525/3/6 529/3/6 531/3/6
f 529/3/6 530/3/6 531/3/6
f 530/3/6 528/3/6 532/3/6
f 531/3/6 530/3/6 532/3/6
f 533/1/6 534/1/6 535/1/6
f 535/1/6 534/1/6 536/1/6
f 537/3/6 538/3/6 539/3/6
f 539/3/6 538/3/6 540/3/6
f 541/3/6 542/3/6 545/3/6
f 545/3/6 542/3/6 546/3/6
f 543/3/6 544/3/6 547/3/6
f 547/3/6 544/3/6 548/3/6
