# MagicaVoxel @ Ephtracy

# material
mtllib FlowerWLeaf.mtl
usemtl palette

# normals
vn -1 0 0
vn 1 0 0
vn 0 0 1
vn 0 0 -1
vn 0 -1 0
vn 0 1 0

# texcoords
vt 0.607422 0.5
vt 0.748047 0.5
vt 0.841797 0.5

# verts
v -6 18 2
v -6 18 -1
v -6 20 2
v -6 20 -1
v -5 17 2
v -5 17 -1
v -5 18 3
v -5 18 2
v -5 18 -1
v -5 18 -2
v -5 20 3
v -5 20 2
v -5 20 -1
v -5 20 -2
v -5 21 2
v -5 21 -1
v -4 16 1
v -4 16 -0
v -4 17 3
v -4 17 2
v -4 17 1
v -4 17 -0
v -4 17 -1
v -4 17 -2
v -4 18 4
v -4 18 3
v -4 18 2
v -4 18 -1
v -4 18 -2
v -4 18 -3
v -4 20 4
v -4 20 3
v -4 20 2
v -4 20 -1
v -4 20 -2
v -4 20 -3
v -4 21 3
v -4 21 2
v -4 21 -1
v -4 21 -2
v -3 14 1
v -3 14 -0
v -3 16 2
v -3 16 1
v -3 16 -0
v -3 16 -1
v -3 17 2
v -3 17 1
v -3 17 -0
v -3 17 -1
v -2 8 2
v -2 8 1
v -2 10 2
v -2 10 1
v -2 11 2
v -2 11 1
v -2 12 1
v -2 12 -0
v -2 13 2
v -2 13 1
v -2 14 1
v -2 14 -0
v -1 0 -0
v -1 0 -1
v -1 2 1
v -1 2 -0
v -1 2 -1
v -1 6 2
v -1 6 1
v -1 7 1
v -1 7 -0
v -1 8 3
v -1 8 2
v -1 8 1
v -1 9 3
v -1 9 2
v -1 19 2
v -1 19 -1
v -1 21 2
v -1 21 -1
v 0 9 4
v 0 9 3
v 0 10 5
v 0 10 4
v 0 10 3
v 0 11 5
v 0 11 4
v 1 10 4
v 1 10 3
v 1 11 6
v 1 11 5
v 1 11 4
v 1 11 3
v 1 12 6
v 1 12 5
v 2 11 5
v 2 11 4
v 2 12 5
v 2 12 4
v -4 19 2
v -4 19 -1
v -4 21 2
v -4 21 -1
v -2 15 1
v -2 15 -0
v -2 16 2
v -2 16 1
v -2 16 -0
v -2 16 -1
v -2 17 2
v -2 17 1
v -2 17 -0
v -2 17 -1
v -1 9 2
v -1 9 1
v -1 10 2
v -1 10 1
v -1 11 2
v -1 11 1
v -1 12 1
v -1 12 -0
v -1 13 2
v -1 13 1
v -1 15 1
v -1 15 -0
v -1 16 1
v -1 16 -0
v -1 17 3
v -1 17 2
v -1 17 1
v -1 17 -0
v -1 17 -1
v -1 17 -2
v -1 18 4
v -1 18 3
v -1 18 2
v -1 18 -1
v -1 18 -2
v -1 18 -3
v -1 20 4
v -1 20 3
v -1 20 2
v -1 20 -1
v -1 20 -2
v -1 20 -3
v -1 21 3
v -1 21 2
v -1 21 -1
v -1 21 -2
v 0 0 -0
v 0 0 -1
v 0 2 1
v 0 2 -0
v 0 2 -1
v 0 6 2
v 0 6 1
v 0 7 1
v 0 7 -0
v 0 8 3
v 0 8 2
v 0 9 3
v 0 9 2
v 0 9 1
v 0 17 2
v 0 17 -1
v 0 18 3
v 0 18 2
v 0 18 -1
v 0 18 -2
v 0 20 3
v 0 20 2
v 0 20 -1
v 0 20 -2
v 0 21 2
v 0 21 -1
v 1 9 4
v 1 9 3
v 1 10 4
v 1 10 3
v 1 18 2
v 1 18 -1
v 1 20 2
v 1 20 -1
v 2 10 5
v 2 10 3
v 2 11 5
v 2 11 4
v 2 11 3
v 3 11 6
v 3 11 4
v 3 12 6
v 3 12 4
v 1 11 6
v 1 12 6
v 3 11 6
v 3 12 6
v 0 10 5
v 0 11 5
v 1 11 5
v 2 10 5
v 2 11 5
v -4 18 4
v -4 20 4
v -1 18 4
v -1 20 4
v 0 9 4
v 0 10 4
v 1 9 4
v 1 10 4
v -5 18 3
v -5 20 3
v -4 17 3
v -4 18 3
v -4 20 3
v -4 21 3
v -1 8 3
v -1 9 3
v -1 17 3
v -1 18 3
v -1 20 3
v -1 21 3
v 0 8 3
v 0 9 3
v 0 18 3
v 0 20 3
v -6 18 2
v -6 20 2
v -5 17 2
v -5 18 2
v -5 20 2
v -5 21 2
v -4 17 2
v -4 18 2
v -4 20 2
v -4 21 2
v -3 16 2
v -3 17 2
v -2 8 2
v -2 10 2
v -2 11 2
v -2 13 2
v -2 16 2
v -2 17 2
v -1 6 2
v -1 8 2
v -1 9 2
v -1 10 2
v -1 11 2
v -1 13 2
v -1 17 2
v -1 18 2
v -1 20 2
v -1 21 2
v 0 6 2
v 0 8 2
v 0 17 2
v 0 18 2
v 0 20 2
v 0 21 2
v 1 18 2
v 1 20 2
v -4 16 1
v -4 17 1
v -3 14 1
v -3 16 1
v -3 17 1
v -2 13 1
v -2 14 1
v -2 15 1
v -2 16 1
v -2 17 1
v -1 2 1
v -1 6 1
v -1 13 1
v -1 15 1
v -1 16 1
v -1 17 1
v 0 2 1
v 0 6 1
v -1 0 -0
v -1 2 -0
v 0 0 -0
v 0 2 -0
v -4 19 -1
v -4 21 -1
v -1 19 -1
v -1 21 -1
v 1 11 5
v 1 12 5
v 2 11 5
v 2 12 5
v 0 10 4
v 0 11 4
v 1 10 4
v 1 11 4
v 2 11 4
v 2 12 4
v 3 11 4
v 3 12 4
v 0 9 3
v 0 10 3
v 1 9 3
v 1 10 3
v 1 11 3
v 2 10 3
v 2 11 3
v -4 19 2
v -4 21 2
v -1 19 2
v -1 21 2
v -2 8 1
v -2 10 1
v -2 11 1
v -2 12 1
v -1 7 1
v -1 8 1
v -1 9 1
v -1 10 1
v -1 11 1
v -1 12 1
v 0 7 1
v 0 9 1
v -4 16 -0
v -4 17 -0
v -3 14 -0
v -3 16 -0
v -3 17 -0
v -2 12 -0
v -2 14 -0
v -2 15 -0
v -2 16 -0
v -2 17 -0
v -1 2 -0
v -1 7 -0
v -1 12 -0
v -1 15 -0
v -1 16 -0
v -1 17 -0
v 0 2 -0
v 0 7 -0
v -6 18 -1
v -6 20 -1
v -5 17 -1
v -5 18 -1
v -5 20 -1
v -5 21 -1
v -4 17 -1
v -4 18 -1
v -4 20 -1
v -4 21 -1
v -3 16 -1
v -3 17 -1
v -2 16 -1
v -2 17 -1
v -1 0 -1
v -1 2 -1
v -1 17 -1
v -1 18 -1
v -1 20 -1
v -1 21 -1
v 0 0 -1
v 0 2 -1
v 0 17 -1
v 0 18 -1
v 0 20 -1
v 0 21 -1
v 1 18 -1
v 1 20 -1
v -5 18 -2
v -5 20 -2
v -4 17 -2
v -4 18 -2
v -4 20 -2
v -4 21 -2
v -1 17 -2
v -1 18 -2
v -1 20 -2
v -1 21 -2
v 0 18 -2
v 0 20 -2
v -4 18 -3
v -4 20 -3
v -1 18 -3
v -1 20 -3
v -1 0 -0
v 0 0 -0
v -1 0 -1
v 0 0 -1
v -1 2 1
v 0 2 1
v -1 2 -0
v 0 2 -0
v -1 6 2
v 0 6 2
v -1 6 1
v 0 6 1
v -1 8 3
v 0 8 3
v -2 8 2
v -1 8 2
v 0 8 2
v -2 8 1
v -1 8 1
v 0 9 4
v 1 9 4
v 0 9 3
v 1 9 3
v 0 10 5
v 2 10 5
v 0 10 4
v 1 10 4
v 1 10 3
v 2 10 3
v 1 11 6
v 3 11 6
v 1 11 5
v 2 11 5
v 2 11 4
v 3 11 4
v -2 12 1
v -1 12 1
v -2 12 -0
v -1 12 -0
v -3 14 1
v -2 14 1
v -3 14 -0
v -2 14 -0
v -3 16 2
v -2 16 2
v -4 16 1
v -3 16 1
v -2 16 1
v -1 16 1
v -4 16 -0
v -3 16 -0
v -2 16 -0
v -1 16 -0
v -3 16 -1
v -2 16 -1
v -4 17 3
v -1 17 3
v -5 17 2
v -4 17 2
v -3 17 2
v -2 17 2
v -1 17 2
v 0 17 2
v -4 17 1
v -3 17 1
v -2 17 1
v -1 17 1
v -4 17 -0
v -3 17 -0
v -2 17 -0
v -1 17 -0
v -5 17 -1
v -4 17 -1
v -3 17 -1
v -2 17 -1
v -1 17 -1
v 0 17 -1
v -4 17 -2
v -1 17 -2
v -4 18 4
v -1 18 4
v -5 18 3
v -4 18 3
v -1 18 3
v 0 18 3
v -6 18 2
v -5 18 2
v -4 18 2
v -1 18 2
v 0 18 2
v 1 18 2
v -6 18 -1
v -5 18 -1
v -4 18 -1
v -1 18 -1
v 0 18 -1
v 1 18 -1
v -5 18 -2
v -4 18 -2
v -1 18 -2
v 0 18 -2
v -4 18 -3
v -1 18 -3
v -1 2 -0
v 0 2 -0
v -1 2 -1
v 0 2 -1
v -1 7 1
v 0 7 1
v -1 7 -0
v 0 7 -0
v -1 9 3
v 0 9 3
v -1 9 2
v 0 9 2
v -1 9 1
v 0 9 1
v 0 10 4
v 1 10 4
v 0 10 3
v 1 10 3
v 0 11 5
v 1 11 5
v 2 11 5
v 0 11 4
v 1 11 4
v 2 11 4
v 1 11 3
v 2 11 3
v 1 12 6
v 3 12 6
v 1 12 5
v 2 12 5
v 2 12 4
v 3 12 4
v -2 13 2
v -1 13 2
v -2 13 1
v -1 13 1
v -2 15 1
v -1 15 1
v -2 15 -0
v -1 15 -0
v -4 19 2
v -1 19 2
v -4 19 -1
v -1 19 -1
v -4 20 4
v -1 20 4
v -5 20 3
v -4 20 3
v -1 20 3
v 0 20 3
v -6 20 2
v -5 20 2
v -4 20 2
v -1 20 2
v 0 20 2
v 1 20 2
v -6 20 -1
v -5 20 -1
v -4 20 -1
v -1 20 -1
v 0 20 -1
v 1 20 -1
v -5 20 -2
v -4 20 -2
v -1 20 -2
v 0 20 -2
v -4 20 -3
v -1 20 -3
v -4 21 3
v -1 21 3
v -5 21 2
v -4 21 2
v -1 21 2
v 0 21 2
v -5 21 -1
v -4 21 -1
v -1 21 -1
v 0 21 -1
v -4 21 -2
v -1 21 -2

# faces
f 3/3/1 2/3/1 1/3/1
f 4/3/1 2/3/1 3/3/1
f 8/3/1 6/3/1 5/3/1
f 9/3/1 6/3/1 8/3/1
f 11/3/1 8/3/1 7/3/1
f 12/3/1 8/3/1 11/3/1
f 13/3/1 10/3/1 9/3/1
f 14/3/1 10/3/1 13/3/1
f 15/3/1 13/3/1 12/3/1
f 16/3/1 13/3/1 15/3/1
f 21/3/1 18/3/1 17/3/1
f 22/3/1 18/3/1 21/3/1
f 26/3/1 20/3/1 19/3/1
f 27/3/1 20/3/1 26/3/1
f 28/3/1 24/3/1 23/3/1
f 29/3/1 24/3/1 28/3/1
f 31/3/1 26/3/1 25/3/1
f 32/3/1 26/3/1 31/3/1
f 35/3/1 30/3/1 29/3/1
f 36/3/1 30/3/1 35/3/1
f 37/3/1 33/3/1 32/3/1
f 38/3/1 33/3/1 37/3/1
f 39/3/1 35/3/1 34/3/1
f 40/3/1 35/3/1 39/3/1
f 44/1/1 42/1/1 41/1/1
f 45/1/1 42/1/1 44/1/1
f 47/3/1 44/3/1 43/3/1
f 48/3/1 44/3/1 47/3/1
f 49/3/1 46/3/1 45/3/1
f 50/3/1 46/3/1 49/3/1
f 53/1/1 52/1/1 51/1/1
f 54/1/1 52/1/1 53/1/1
f 55/2/1 54/2/1 53/2/1
f 56/2/1 54/2/1 55/2/1
f 57/1/1 56/1/1 55/1/1
f 59/1/1 57/1/1 55/1/1
f 59/1/1 58/1/1 57/1/1
f 60/1/1 58/1/1 59/1/1
f 61/1/1 58/1/1 60/1/1
f 62/1/1 58/1/1 61/1/1
f 66/1/1 64/1/1 63/1/1
f 67/1/1 64/1/1 66/1/1
f 69/1/1 66/1/1 65/1/1
f 70/1/1 66/1/1 69/1/1
f 70/1/1 69/1/1 68/1/1
f 71/1/1 66/1/1 70/1/1
f 73/1/1 70/1/1 68/1/1
f 74/1/1 70/1/1 73/1/1
f 75/2/1 73/2/1 72/2/1
f 76/2/1 73/2/1 75/2/1
f 79/3/1 78/3/1 77/3/1
f 80/3/1 78/3/1 79/3/1
f 84/2/1 82/2/1 81/2/1
f 85/2/1 82/2/1 84/2/1
f 86/2/1 84/2/1 83/2/1
f 87/2/1 84/2/1 86/2/1
f 92/2/1 89/2/1 88/2/1
f 93/2/1 89/2/1 92/2/1
f 94/2/1 91/2/1 90/2/1
f 95/2/1 91/2/1 94/2/1
f 98/2/1 97/2/1 96/2/1
f 99/2/1 97/2/1 98/2/1
f 100/3/2 101/3/2 102/3/2
f 102/3/2 101/3/2 103/3/2
f 104/1/2 105/1/2 107/1/2
f 107/1/2 105/1/2 108/1/2
f 106/3/2 107/3/2 110/3/2
f 110/3/2 107/3/2 111/3/2
f 108/3/2 109/3/2 112/3/2
f 112/3/2 109/3/2 113/3/2
f 114/1/2 115/1/2 116/1/2
f 116/1/2 115/1/2 117/1/2
f 116/2/2 117/2/2 118/2/2
f 118/2/2 117/2/2 119/2/2
f 118/1/2 119/1/2 120/1/2
f 118/1/2 120/1/2 122/1/2
f 120/1/2 121/1/2 122/1/2
f 122/1/2 121/1/2 123/1/2
f 123/1/2 121/1/2 124/1/2
f 124/1/2 121/1/2 125/1/2
f 126/3/2 127/3/2 130/3/2
f 130/3/2 127/3/2 131/3/2
f 128/3/2 129/3/2 135/3/2
f 135/3/2 129/3/2 136/3/2
f 132/3/2 133/3/2 137/3/2
f 137/3/2 133/3/2 138/3/2
f 134/3/2 135/3/2 140/3/2
f 140/3/2 135/3/2 141/3/2
f 138/3/2 139/3/2 144/3/2
f 144/3/2 139/3/2 145/3/2
f 141/3/2 142/3/2 146/3/2
f 146/3/2 142/3/2 147/3/2
f 143/3/2 144/3/2 148/3/2
f 148/3/2 144/3/2 149/3/2
f 150/1/2 151/1/2 153/1/2
f 153/1/2 151/1/2 154/1/2
f 152/1/2 153/1/2 156/1/2
f 156/1/2 153/1/2 157/1/2
f 155/1/2 156/1/2 157/1/2
f 157/1/2 153/1/2 158/1/2
f 155/1/2 157/1/2 160/1/2
f 159/2/2 160/2/2 161/2/2
f 160/1/2 157/1/2 162/1/2
f 161/2/2 160/2/2 162/2/2
f 162/1/2 157/1/2 163/1/2
f 164/3/2 165/3/2 167/3/2
f 167/3/2 165/3/2 168/3/2
f 166/3/2 167/3/2 170/3/2
f 170/3/2 167/3/2 171/3/2
f 168/3/2 169/3/2 172/3/2
f 172/3/2 169/3/2 173/3/2
f 171/3/2 172/3/2 174/3/2
f 174/3/2 172/3/2 175/3/2
f 176/2/2 177/2/2 178/2/2
f 178/2/2 177/2/2 179/2/2
f 180/3/2 181/3/2 182/3/2
f 182/3/2 181/3/2 183/3/2
f 184/2/2 185/2/2 186/2/2
f 186/2/2 185/2/2 187/2/2
f 187/2/2 185/2/2 188/2/2
f 189/2/2 190/2/2 191/2/2
f 191/2/2 190/2/2 192/2/2
f 195/2/3 194/2/3 193/2/3
f 196/2/3 194/2/3 195/2/3
f 199/2/3 198/2/3 197/2/3
f 200/2/3 199/2/3 197/2/3
f 201/2/3 199/2/3 200/2/3
f 204/3/3 203/3/3 202/3/3
f 205/3/3 203/3/3 204/3/3
f 208/2/3 207/2/3 206/2/3
f 209/2/3 207/2/3 208/2/3
f 213/3/3 211/3/3 210/3/3
f 214/3/3 211/3/3 213/3/3
f 218/3/3 213/3/3 212/3/3
f 219/3/3 213/3/3 218/3/3
f 220/3/3 215/3/3 214/3/3
f 221/3/3 215/3/3 220/3/3
f 222/2/3 217/2/3 216/2/3
f 223/2/3 217/2/3 222/2/3
f 224/3/3 220/3/3 219/3/3
f 225/3/3 220/3/3 224/3/3
f 229/3/3 227/3/3 226/3/3
f 230/3/3 227/3/3 229/3/3
f 232/3/3 229/3/3 228/3/3
f 233/3/3 229/3/3 232/3/3
f 234/3/3 231/3/3 230/3/3
f 235/3/3 231/3/3 234/3/3
f 242/3/3 237/3/3 236/3/3
f 243/3/3 237/3/3 242/3/3
f 245/1/3 239/1/3 238/1/3
f 246/1/3 239/1/3 245/1/3
f 247/2/3 240/2/3 239/2/3
f 247/1/3 239/1/3 246/1/3
f 248/1/3 241/1/3 240/1/3
f 248/2/3 240/2/3 247/2/3
f 249/1/3 241/1/3 248/1/3
f 254/1/3 245/1/3 244/1/3
f 255/1/3 245/1/3 254/1/3
f 256/3/3 251/3/3 250/3/3
f 257/3/3 251/3/3 256/3/3
f 258/3/3 253/3/3 252/3/3
f 259/3/3 253/3/3 258/3/3
f 260/3/3 258/3/3 257/3/3
f 261/3/3 258/3/3 260/3/3
f 265/3/3 263/3/3 262/3/3
f 266/3/3 263/3/3 265/3/3
f 268/1/3 265/1/3 264/1/3
f 269/1/3 265/1/3 268/1/3
f 270/1/3 265/1/3 269/1/3
f 274/1/3 268/1/3 267/1/3
f 274/1/3 269/1/3 268/1/3
f 275/1/3 269/1/3 274/1/3
f 276/3/3 271/3/3 270/3/3
f 277/3/3 271/3/3 276/3/3
f 278/1/3 273/1/3 272/1/3
f 279/1/3 273/1/3 278/1/3
f 282/1/3 281/1/3 280/1/3
f 283/1/3 281/1/3 282/1/3
f 286/3/3 285/3/3 284/3/3
f 287/3/3 285/3/3 286/3/3
f 288/2/4 289/2/4 290/2/4
f 290/2/4 289/2/4 291/2/4
f 292/2/4 293/2/4 294/2/4
f 294/2/4 293/2/4 295/2/4
f 296/2/4 297/2/4 298/2/4
f 298/2/4 297/2/4 299/2/4
f 300/2/4 301/2/4 302/2/4
f 302/2/4 301/2/4 303/2/4
f 303/2/4 304/2/4 305/2/4
f 305/2/4 304/2/4 306/2/4
f 307/3/4 308/3/4 309/3/4
f 309/3/4 308/3/4 310/3/4
f 311/1/4 312/1/4 316/1/4
f 316/1/4 312/1/4 317/1/4
f 312/2/4 313/2/4 318/2/4
f 317/1/4 312/1/4 318/1/4
f 313/1/4 314/1/4 319/1/4
f 318/2/4 313/2/4 319/2/4
f 319/1/4 314/1/4 320/1/4
f 316/1/4 317/1/4 321/1/4
f 315/1/4 316/1/4 321/1/4
f 321/1/4 317/1/4 322/1/4
f 323/3/4 324/3/4 326/3/4
f 326/3/4 324/3/4 327/3/4
f 325/1/4 326/1/4 329/1/4
f 329/1/4 326/1/4 330/1/4
f 330/1/4 326/1/4 331/1/4
f 328/1/4 329/1/4 335/1/4
f 329/1/4 330/1/4 335/1/4
f 335/1/4 330/1/4 336/1/4
f 331/3/4 332/3/4 337/3/4
f 337/3/4 332/3/4 338/3/4
f 333/1/4 334/1/4 339/1/4
f 339/1/4 334/1/4 340/1/4
f 341/3/4 342/3/4 344/3/4
f 344/3/4 342/3/4 345/3/4
f 343/3/4 344/3/4 347/3/4
f 347/3/4 344/3/4 348/3/4
f 345/3/4 346/3/4 349/3/4
f 349/3/4 346/3/4 350/3/4
f 351/3/4 352/3/4 353/3/4
f 353/3/4 352/3/4 354/3/4
f 355/1/4 356/1/4 361/1/4
f 361/1/4 356/1/4 362/1/4
f 357/3/4 358/3/4 363/3/4
f 363/3/4 358/3/4 364/3/4
f 359/3/4 360/3/4 365/3/4
f 365/3/4 360/3/4 366/3/4
f 364/3/4 365/3/4 367/3/4
f 367/3/4 365/3/4 368/3/4
f 369/3/4 370/3/4 372/3/4
f 372/3/4 370/3/4 373/3/4
f 371/3/4 372/3/4 375/3/4
f 375/3/4 372/3/4 376/3/4
f 373/3/4 374/3/4 377/3/4
f 377/3/4 374/3/4 378/3/4
f 376/3/4 377/3/4 379/3/4
f 379/3/4 377/3/4 380/3/4
f 381/3/4 382/3/4 383/3/4
f 383/3/4 382/3/4 384/3/4
f 387/1/5 386/1/5 385/1/5
f 388/1/5 386/1/5 387/1/5
f 391/1/5 390/1/5 389/1/5
f 392/1/5 390/1/5 391/1/5
f 395/1/5 394/1/5 393/1/5
f 396/1/5 394/1/5 395/1/5
f 400/2/5 398/2/5 397/2/5
f 401/2/5 398/2/5 400/2/5
f 402/1/5 400/1/5 399/1/5
f 403/1/5 400/1/5 402/1/5
f 406/2/5 405/2/5 404/2/5
f 407/2/5 405/2/5 406/2/5
f 410/2/5 409/2/5 408/2/5
f 411/2/5 409/2/5 410/2/5
f 412/2/5 409/2/5 411/2/5
f 413/2/5 409/2/5 412/2/5
f 416/2/5 415/2/5 414/2/5
f 417/2/5 415/2/5 416/2/5
f 418/2/5 415/2/5 417/2/5
f 419/2/5 415/2/5 418/2/5
f 422/1/5 421/1/5 420/1/5
f 423/1/5 421/1/5 422/1/5
f 426/1/5 425/1/5 424/1/5
f 427/1/5 425/1/5 426/1/5
f 431/3/5 429/3/5 428/3/5
f 432/3/5 429/3/5 431/3/5
f 434/3/5 431/3/5 430/3/5
f 435/3/5 431/3/5 434/3/5
f 436/3/5 433/3/5 432/3/5
f 437/3/5 433/3/5 436/3/5
f 438/3/5 436/3/5 435/3/5
f 439/3/5 436/3/5 438/3/5
f 443/3/5 441/3/5 440/3/5
f 444/3/5 441/3/5 443/3/5
f 445/3/5 441/3/5 444/3/5
f 446/3/5 441/3/5 445/3/5
f 448/3/5 443/3/5 442/3/5
f 448/3/5 444/3/5 443/3/5
f 449/3/5 444/3/5 448/3/5
f 450/3/5 447/3/5 446/3/5
f 450/3/5 446/3/5 445/3/5
f 451/3/5 447/3/5 450/3/5
f 452/3/5 448/3/5 442/3/5
f 455/3/5 447/3/5 451/3/5
f 456/3/5 453/3/5 452/3/5
f 456/3/5 452/3/5 442/3/5
f 457/3/5 453/3/5 456/3/5
f 458/3/5 453/3/5 457/3/5
f 459/3/5 455/3/5 454/3/5
f 460/3/5 447/3/5 455/3/5
f 460/3/5 455/3/5 459/3/5
f 461/3/5 447/3/5 460/3/5
f 462/3/5 458/3/5 457/3/5
f 462/3/5 459/3/5 458/3/5
f 462/3/5 460/3/5 459/3/5
f 463/3/5 460/3/5 462/3/5
f 467/3/5 465/3/5 464/3/5
f 468/3/5 465/3/5 467/3/5
f 471/3/5 467/3/5 466/3/5
f 472/3/5 467/3/5 471/3/5
f 473/3/5 469/3/5 468/3/5
f 474/3/5 469/3/5 473/3/5
f 476/3/5 471/3/5 470/3/5
f 477/3/5 471/3/5 476/3/5
f 480/3/5 475/3/5 474/3/5
f 481/3/5 475/3/5 480/3/5
f 482/3/5 478/3/5 477/3/5
f 483/3/5 478/3/5 482/3/5
f 484/3/5 480/3/5 479/3/5
f 485/3/5 480/3/5 484/3/5
f 486/3/5 484/3/5 483/3/5
f 487/3/5 484/3/5 486/3/5
f 488/1/6 489/1/6 490/1/6
f 490/1/6 489/1/6 491/1/6
f 492/1/6 493/1/6 494/1/6
f 494/1/6 493/1/6 495/1/6
f 496/2/6 497/2/6 498/2/6
f 498/2/6 497/2/6 499/2/6
f 498/1/6 499/1/6 500/1/6
f 500/1/6 499/1/6 501/1/6
f 502/2/6 503/2/6 504/2/6
f 504/2/6 503/2/6 505/2/6
f 506/2/6 507/2/6 509/2/6
f 507/2/6 508/2/6 509/2/6
f 509/2/6 508/2/6 510/2/6
f 510/2/6 508/2/6 511/2/6
f 510/2/6 511/2/6 512/2/6
f 512/2/6 511/2/6 513/2/6
f 514/2/6 515/2/6 516/2/6
f 516/2/6 515/2/6 517/2/6
f 517/2/6 515/2/6 518/2/6
f 518/2/6 515/2/6 519/2/6
f 520/1/6 521/1/6 522/1/6
f 522/1/6 521/1/6 523/1/6
f 524/1/6 525/1/6 526/1/6
f 526/1/6 525/1/6 527/1/6
f 528/3/6 529/3/6 530/3/6
f 530/3/6 529/3/6 531/3/6
f 532/3/6 533/3/6 535/3/6
f 535/3/6 533/3/6 536/3/6
f 534/3/6 535/3/6 539/3/6
f 539/3/6 535/3/6 540/3/6
f 536/3/6 537/3/6 541/3/6
f 541/3/6 537/3/6 542/3/6
f 538/3/6 539/3/6 544/3/6
f 544/3/6 539/3/6 545/3/6
f 542/3/6 543/3/6 548/3/6
f 548/3/6 543/3/6 549/3/6
f 545/3/6 546/3/6 550/3/6
f 550/3/6 546/3/6 551/3/6
f 547/3/6 548/3/6 552/3/6
f 552/3/6 548/3/6 553/3/6
f 551/3/6 552/3/6 554/3/6
f 554/3/6 552/3/6 555/3/6
f 556/3/6 557/3/6 559/3/6
f 559/3/6 557/3/6 560/3/6
f 558/3/6 559/3/6 562/3/6
f 562/3/6 559/3/6 563/3/6
f 560/3/6 561/3/6 564/3/6
f 564/3/6 561/3/6 565/3/6
f 563/3/6 564/3/6 566/3/6
f 566/3/6 564/3/6 567/3/6
