# MagicaVoxel @ Ephtracy

# material
mtllib FlowerWoLeaf.mtl
usemtl palette

# normals
vn -1 0 0
vn 1 0 0
vn 0 0 1
vn 0 0 -1
vn 0 -1 0
vn 0 1 0

# texcoords
vt 0.607422 0.5
vt 0.748047 0.5
vt 0.841797 0.5

# verts
v -6 18 2
v -6 18 -1
v -6 20 2
v -6 20 -1
v -5 17 2
v -5 17 -1
v -5 18 3
v -5 18 2
v -5 18 -1
v -5 18 -2
v -5 20 3
v -5 20 2
v -5 20 -1
v -5 20 -2
v -5 21 2
v -5 21 -1
v -4 16 1
v -4 16 -0
v -4 17 3
v -4 17 2
v -4 17 1
v -4 17 -0
v -4 17 -1
v -4 17 -2
v -4 18 4
v -4 18 3
v -4 18 2
v -4 18 -1
v -4 18 -2
v -4 18 -3
v -4 20 4
v -4 20 3
v -4 20 2
v -4 20 -1
v -4 20 -2
v -4 20 -3
v -4 21 3
v -4 21 2
v -4 21 -1
v -4 21 -2
v -3 14 1
v -3 14 -0
v -3 16 2
v -3 16 1
v -3 16 -0
v -3 16 -1
v -3 17 2
v -3 17 1
v -3 17 -0
v -3 17 -1
v -2 8 2
v -2 8 1
v -2 10 2
v -2 10 1
v -2 11 2
v -2 11 1
v -2 12 1
v -2 12 -0
v -2 13 2
v -2 13 1
v -2 14 1
v -2 14 -0
v -1 0 -0
v -1 0 -1
v -1 2 1
v -1 2 -0
v -1 2 -1
v -1 6 2
v -1 6 1
v -1 7 1
v -1 7 -0
v -1 8 2
v -1 8 1
v -1 19 2
v -1 19 -1
v -1 21 2
v -1 21 -1
v -4 19 2
v -4 19 -1
v -4 21 2
v -4 21 -1
v -2 15 1
v -2 15 -0
v -2 16 2
v -2 16 1
v -2 16 -0
v -2 16 -1
v -2 17 2
v -2 17 1
v -2 17 -0
v -2 17 -1
v -1 9 2
v -1 9 1
v -1 10 2
v -1 10 1
v -1 11 2
v -1 11 1
v -1 12 1
v -1 12 -0
v -1 13 2
v -1 13 1
v -1 15 1
v -1 15 -0
v -1 16 1
v -1 16 -0
v -1 17 3
v -1 17 2
v -1 17 1
v -1 17 -0
v -1 17 -1
v -1 17 -2
v -1 18 4
v -1 18 3
v -1 18 2
v -1 18 -1
v -1 18 -2
v -1 18 -3
v -1 20 4
v -1 20 3
v -1 20 2
v -1 20 -1
v -1 20 -2
v -1 20 -3
v -1 21 3
v -1 21 2
v -1 21 -1
v -1 21 -2
v 0 0 -0
v 0 0 -1
v 0 2 1
v 0 2 -0
v 0 2 -1
v 0 6 2
v 0 6 1
v 0 7 1
v 0 7 -0
v 0 9 2
v 0 9 1
v 0 17 2
v 0 17 -1
v 0 18 3
v 0 18 2
v 0 18 -1
v 0 18 -2
v 0 20 3
v 0 20 2
v 0 20 -1
v 0 20 -2
v 0 21 2
v 0 21 -1
v 1 18 2
v 1 18 -1
v 1 20 2
v 1 20 -1
v -4 18 4
v -4 20 4
v -1 18 4
v -1 20 4
v -5 18 3
v -5 20 3
v -4 17 3
v -4 18 3
v -4 20 3
v -4 21 3
v -1 17 3
v -1 18 3
v -1 20 3
v -1 21 3
v 0 18 3
v 0 20 3
v -6 18 2
v -6 20 2
v -5 17 2
v -5 18 2
v -5 20 2
v -5 21 2
v -4 17 2
v -4 18 2
v -4 20 2
v -4 21 2
v -3 16 2
v -3 17 2
v -2 8 2
v -2 10 2
v -2 11 2
v -2 13 2
v -2 16 2
v -2 17 2
v -1 6 2
v -1 8 2
v -1 9 2
v -1 10 2
v -1 11 2
v -1 13 2
v -1 17 2
v -1 18 2
v -1 20 2
v -1 21 2
v 0 6 2
v 0 9 2
v 0 17 2
v 0 18 2
v 0 20 2
v 0 21 2
v 1 18 2
v 1 20 2
v -4 16 1
v -4 17 1
v -3 14 1
v -3 16 1
v -3 17 1
v -2 13 1
v -2 14 1
v -2 15 1
v -2 16 1
v -2 17 1
v -1 2 1
v -1 6 1
v -1 13 1
v -1 15 1
v -1 16 1
v -1 17 1
v 0 2 1
v 0 6 1
v -1 0 -0
v -1 2 -0
v 0 0 -0
v 0 2 -0
v -4 19 -1
v -4 21 -1
v -1 19 -1
v -1 21 -1
v -4 19 2
v -4 21 2
v -1 19 2
v -1 21 2
v -2 8 1
v -2 10 1
v -2 11 1
v -2 12 1
v -1 7 1
v -1 8 1
v -1 9 1
v -1 10 1
v -1 11 1
v -1 12 1
v 0 7 1
v 0 9 1
v -4 16 -0
v -4 17 -0
v -3 14 -0
v -3 16 -0
v -3 17 -0
v -2 12 -0
v -2 14 -0
v -2 15 -0
v -2 16 -0
v -2 17 -0
v -1 2 -0
v -1 7 -0
v -1 12 -0
v -1 15 -0
v -1 16 -0
v -1 17 -0
v 0 2 -0
v 0 7 -0
v -6 18 -1
v -6 20 -1
v -5 17 -1
v -5 18 -1
v -5 20 -1
v -5 21 -1
v -4 17 -1
v -4 18 -1
v -4 20 -1
v -4 21 -1
v -3 16 -1
v -3 17 -1
v -2 16 -1
v -2 17 -1
v -1 0 -1
v -1 2 -1
v -1 17 -1
v -1 18 -1
v -1 20 -1
v -1 21 -1
v 0 0 -1
v 0 2 -1
v 0 17 -1
v 0 18 -1
v 0 20 -1
v 0 21 -1
v 1 18 -1
v 1 20 -1
v -5 18 -2
v -5 20 -2
v -4 17 -2
v -4 18 -2
v -4 20 -2
v -4 21 -2
v -1 17 -2
v -1 18 -2
v -1 20 -2
v -1 21 -2
v 0 18 -2
v 0 20 -2
v -4 18 -3
v -4 20 -3
v -1 18 -3
v -1 20 -3
v -1 0 -0
v 0 0 -0
v -1 0 -1
v 0 0 -1
v -1 2 1
v 0 2 1
v -1 2 -0
v 0 2 -0
v -1 6 2
v 0 6 2
v -1 6 1
v 0 6 1
v -2 8 2
v -1 8 2
v -2 8 1
v -1 8 1
v -2 12 1
v -1 12 1
v -2 12 -0
v -1 12 -0
v -3 14 1
v -2 14 1
v -3 14 -0
v -2 14 -0
v -3 16 2
v -2 16 2
v -4 16 1
v -3 16 1
v -2 16 1
v -1 16 1
v -4 16 -0
v -3 16 -0
v -2 16 -0
v -1 16 -0
v -3 16 -1
v -2 16 -1
v -4 17 3
v -1 17 3
v -5 17 2
v -4 17 2
v -3 17 2
v -2 17 2
v -1 17 2
v 0 17 2
v -4 17 1
v -3 17 1
v -2 17 1
v -1 17 1
v -4 17 -0
v -3 17 -0
v -2 17 -0
v -1 17 -0
v -5 17 -1
v -4 17 -1
v -3 17 -1
v -2 17 -1
v -1 17 -1
v 0 17 -1
v -4 17 -2
v -1 17 -2
v -4 18 4
v -1 18 4
v -5 18 3
v -4 18 3
v -1 18 3
v 0 18 3
v -6 18 2
v -5 18 2
v -4 18 2
v -1 18 2
v 0 18 2
v 1 18 2
v -6 18 -1
v -5 18 -1
v -4 18 -1
v -1 18 -1
v 0 18 -1
v 1 18 -1
v -5 18 -2
v -4 18 -2
v -1 18 -2
v 0 18 -2
v -4 18 -3
v -1 18 -3
v -1 2 -0
v 0 2 -0
v -1 2 -1
v 0 2 -1
v -1 7 1
v 0 7 1
v -1 7 -0
v 0 7 -0
v -1 9 2
v 0 9 2
v -1 9 1
v 0 9 1
v -2 13 2
v -1 13 2
v -2 13 1
v -1 13 1
v -2 15 1
v -1 15 1
v -2 15 -0
v -1 15 -0
v -4 19 2
v -1 19 2
v -4 19 -1
v -1 19 -1
v -4 20 4
v -1 20 4
v -5 20 3
v -4 20 3
v -1 20 3
v 0 20 3
v -6 20 2
v -5 20 2
v -4 20 2
v -1 20 2
v 0 20 2
v 1 20 2
v -6 20 -1
v -5 20 -1
v -4 20 -1
v -1 20 -1
v 0 20 -1
v 1 20 -1
v -5 20 -2
v -4 20 -2
v -1 20 -2
v 0 20 -2
v -4 20 -3
v -1 20 -3
v -4 21 3
v -1 21 3
v -5 21 2
v -4 21 2
v -1 21 2
v 0 21 2
v -5 21 -1
v -4 21 -1
v -1 21 -1
v 0 21 -1
v -4 21 -2
v -1 21 -2

# faces
f 3/3/1 2/3/1 1/3/1
f 4/3/1 2/3/1 3/3/1
f 8/3/1 6/3/1 5/3/1
f 9/3/1 6/3/1 8/3/1
f 11/3/1 8/3/1 7/3/1
f 12/3/1 8/3/1 11/3/1
f 13/3/1 10/3/1 9/3/1
f 14/3/1 10/3/1 13/3/1
f 15/3/1 13/3/1 12/3/1
f 16/3/1 13/3/1 15/3/1
f 21/3/1 18/3/1 17/3/1
f 22/3/1 18/3/1 21/3/1
f 26/3/1 20/3/1 19/3/1
f 27/3/1 20/3/1 26/3/1
f 28/3/1 24/3/1 23/3/1
f 29/3/1 24/3/1 28/3/1
f 31/3/1 26/3/1 25/3/1
f 32/3/1 26/3/1 31/3/1
f 35/3/1 30/3/1 29/3/1
f 36/3/1 30/3/1 35/3/1
f 37/3/1 33/3/1 32/3/1
f 38/3/1 33/3/1 37/3/1
f 39/3/1 35/3/1 34/3/1
f 40/3/1 35/3/1 39/3/1
f 44/1/1 42/1/1 41/1/1
f 45/1/1 42/1/1 44/1/1
f 47/3/1 44/3/1 43/3/1
f 48/3/1 44/3/1 47/3/1
f 49/3/1 46/3/1 45/3/1
f 50/3/1 46/3/1 49/3/1
f 53/1/1 52/1/1 51/1/1
f 54/1/1 52/1/1 53/1/1
f 55/2/1 54/2/1 53/2/1
f 56/2/1 54/2/1 55/2/1
f 57/1/1 56/1/1 55/1/1
f 59/1/1 57/1/1 55/1/1
f 59/1/1 58/1/1 57/1/1
f 60/1/1 58/1/1 59/1/1
f 61/1/1 58/1/1 60/1/1
f 62/1/1 58/1/1 61/1/1
f 66/1/1 64/1/1 63/1/1
f 67/1/1 64/1/1 66/1/1
f 69/1/1 66/1/1 65/1/1
f 70/1/1 66/1/1 69/1/1
f 70/1/1 69/1/1 68/1/1
f 71/1/1 66/1/1 70/1/1
f 72/1/1 70/1/1 68/1/1
f 73/1/1 70/1/1 72/1/1
f 76/3/1 75/3/1 74/3/1
f 77/3/1 75/3/1 76/3/1
f 78/3/2 79/3/2 80/3/2
f 80/3/2 79/3/2 81/3/2
f 82/1/2 83/1/2 85/1/2
f 85/1/2 83/1/2 86/1/2
f 84/3/2 85/3/2 88/3/2
f 88/3/2 85/3/2 89/3/2
f 86/3/2 87/3/2 90/3/2
f 90/3/2 87/3/2 91/3/2
f 92/1/2 93/1/2 94/1/2
f 94/1/2 93/1/2 95/1/2
f 94/2/2 95/2/2 96/2/2
f 96/2/2 95/2/2 97/2/2
f 96/1/2 97/1/2 98/1/2
f 96/1/2 98/1/2 100/1/2
f 98/1/2 99/1/2 100/1/2
f 100/1/2 99/1/2 101/1/2
f 101/1/2 99/1/2 102/1/2
f 102/1/2 99/1/2 103/1/2
f 104/3/2 105/3/2 108/3/2
f 108/3/2 105/3/2 109/3/2
f 106/3/2 107/3/2 113/3/2
f 113/3/2 107/3/2 114/3/2
f 110/3/2 111/3/2 115/3/2
f 115/3/2 111/3/2 116/3/2
f 112/3/2 113/3/2 118/3/2
f 118/3/2 113/3/2 119/3/2
f 116/3/2 117/3/2 122/3/2
f 122/3/2 117/3/2 123/3/2
f 119/3/2 120/3/2 124/3/2
f 124/3/2 120/3/2 125/3/2
f 121/3/2 122/3/2 126/3/2
f 126/3/2 122/3/2 127/3/2
f 128/1/2 129/1/2 131/1/2
f 131/1/2 129/1/2 132/1/2
f 130/1/2 131/1/2 134/1/2
f 134/1/2 131/1/2 135/1/2
f 133/1/2 134/1/2 135/1/2
f 135/1/2 131/1/2 136/1/2
f 133/1/2 135/1/2 137/1/2
f 137/1/2 135/1/2 138/1/2
f 139/3/2 140/3/2 142/3/2
f 142/3/2 140/3/2 143/3/2
f 141/3/2 142/3/2 145/3/2
f 145/3/2 142/3/2 146/3/2
f 143/3/2 144/3/2 147/3/2
f 147/3/2 144/3/2 148/3/2
f 146/3/2 147/3/2 149/3/2
f 149/3/2 147/3/2 150/3/2
f 151/3/2 152/3/2 153/3/2
f 153/3/2 152/3/2 154/3/2
f 157/3/3 156/3/3 155/3/3
f 158/3/3 156/3/3 157/3/3
f 162/3/3 160/3/3 159/3/3
f 163/3/3 160/3/3 162/3/3
f 165/3/3 162/3/3 161/3/3
f 166/3/3 162/3/3 165/3/3
f 167/3/3 164/3/3 163/3/3
f 168/3/3 164/3/3 167/3/3
f 169/3/3 167/3/3 166/3/3
f 170/3/3 167/3/3 169/3/3
f 174/3/3 172/3/3 171/3/3
f 175/3/3 172/3/3 174/3/3
f 177/3/3 174/3/3 173/3/3
f 178/3/3 174/3/3 177/3/3
f 179/3/3 176/3/3 175/3/3
f 180/3/3 176/3/3 179/3/3
f 187/3/3 182/3/3 181/3/3
f 188/3/3 182/3/3 187/3/3
f 190/1/3 184/1/3 183/1/3
f 191/1/3 184/1/3 190/1/3
f 192/2/3 185/2/3 184/2/3
f 192/1/3 184/1/3 191/1/3
f 193/1/3 186/1/3 185/1/3
f 193/2/3 185/2/3 192/2/3
f 194/1/3 186/1/3 193/1/3
f 199/1/3 191/1/3 190/1/3
f 199/1/3 190/1/3 189/1/3
f 200/1/3 191/1/3 199/1/3
f 201/3/3 196/3/3 195/3/3
f 202/3/3 196/3/3 201/3/3
f 203/3/3 198/3/3 197/3/3
f 204/3/3 198/3/3 203/3/3
f 205/3/3 203/3/3 202/3/3
f 206/3/3 203/3/3 205/3/3
f 210/3/3 208/3/3 207/3/3
f 211/3/3 208/3/3 210/3/3
f 213/1/3 210/1/3 209/1/3
f 214/1/3 210/1/3 213/1/3
f 215/1/3 210/1/3 214/1/3
f 219/1/3 213/1/3 212/1/3
f 219/1/3 214/1/3 213/1/3
f 220/1/3 214/1/3 219/1/3
f 221/3/3 216/3/3 215/3/3
f 222/3/3 216/3/3 221/3/3
f 223/1/3 218/1/3 217/1/3
f 224/1/3 218/1/3 223/1/3
f 227/1/3 226/1/3 225/1/3
f 228/1/3 226/1/3 227/1/3
f 231/3/3 230/3/3 229/3/3
f 232/3/3 230/3/3 231/3/3
f 233/3/4 234/3/4 235/3/4
f 235/3/4 234/3/4 236/3/4
f 237/1/4 238/1/4 242/1/4
f 242/1/4 238/1/4 243/1/4
f 238/2/4 239/2/4 244/2/4
f 243/1/4 238/1/4 244/1/4
f 239/1/4 240/1/4 245/1/4
f 244/2/4 239/2/4 245/2/4
f 245/1/4 240/1/4 246/1/4
f 242/1/4 243/1/4 247/1/4
f 241/1/4 242/1/4 247/1/4
f 247/1/4 243/1/4 248/1/4
f 249/3/4 250/3/4 252/3/4
f 252/3/4 250/3/4 253/3/4
f 251/1/4 252/1/4 255/1/4
f 255/1/4 252/1/4 256/1/4
f 256/1/4 252/1/4 257/1/4
f 254/1/4 255/1/4 261/1/4
f 255/1/4 256/1/4 261/1/4
f 261/1/4 256/1/4 262/1/4
f 257/3/4 258/3/4 263/3/4
f 263/3/4 258/3/4 264/3/4
f 259/1/4 260/1/4 265/1/4
f 265/1/4 260/1/4 266/1/4
f 267/3/4 268/3/4 270/3/4
f 270/3/4 268/3/4 271/3/4
f 269/3/4 270/3/4 273/3/4
f 273/3/4 270/3/4 274/3/4
f 271/3/4 272/3/4 275/3/4
f 275/3/4 272/3/4 276/3/4
f 277/3/4 278/3/4 279/3/4
f 279/3/4 278/3/4 280/3/4
f 281/1/4 282/1/4 287/1/4
f 287/1/4 282/1/4 288/1/4
f 283/3/4 284/3/4 289/3/4
f 289/3/4 284/3/4 290/3/4
f 285/3/4 286/3/4 291/3/4
f 291/3/4 286/3/4 292/3/4
f 290/3/4 291/3/4 293/3/4
f 293/3/4 291/3/4 294/3/4
f 295/3/4 296/3/4 298/3/4
f 298/3/4 296/3/4 299/3/4
f 297/3/4 298/3/4 301/3/4
f 301/3/4 298/3/4 302/3/4
f 299/3/4 300/3/4 303/3/4
f 303/3/4 300/3/4 304/3/4
f 302/3/4 303/3/4 305/3/4
f 305/3/4 303/3/4 306/3/4
f 307/3/4 308/3/4 309/3/4
f 309/3/4 308/3/4 310/3/4
f 313/1/5 312/1/5 311/1/5
f 314/1/5 312/1/5 313/1/5
f 317/1/5 316/1/5 315/1/5
f 318/1/5 316/1/5 317/1/5
f 321/1/5 320/1/5 319/1/5
f 322/1/5 320/1/5 321/1/5
f 325/1/5 324/1/5 323/1/5
f 326/1/5 324/1/5 325/1/5
f 329/1/5 328/1/5 327/1/5
f 330/1/5 328/1/5 329/1/5
f 333/1/5 332/1/5 331/1/5
f 334/1/5 332/1/5 333/1/5
f 338/3/5 336/3/5 335/3/5
f 339/3/5 336/3/5 338/3/5
f 341/3/5 338/3/5 337/3/5
f 342/3/5 338/3/5 341/3/5
f 343/3/5 340/3/5 339/3/5
f 344/3/5 340/3/5 343/3/5
f 345/3/5 343/3/5 342/3/5
f 346/3/5 343/3/5 345/3/5
f 350/3/5 348/3/5 347/3/5
f 351/3/5 348/3/5 350/3/5
f 352/3/5 348/3/5 351/3/5
f 353/3/5 348/3/5 352/3/5
f 355/3/5 350/3/5 349/3/5
f 355/3/5 351/3/5 350/3/5
f 356/3/5 351/3/5 355/3/5
f 357/3/5 354/3/5 353/3/5
f 357/3/5 353/3/5 352/3/5
f 358/3/5 354/3/5 357/3/5
f 359/3/5 355/3/5 349/3/5
f 362/3/5 354/3/5 358/3/5
f 363/3/5 360/3/5 359/3/5
f 363/3/5 359/3/5 349/3/5
f 364/3/5 360/3/5 363/3/5
f 365/3/5 360/3/5 364/3/5
f 366/3/5 362/3/5 361/3/5
f 367/3/5 354/3/5 362/3/5
f 367/3/5 362/3/5 366/3/5
f 368/3/5 354/3/5 367/3/5
f 369/3/5 365/3/5 364/3/5
f 369/3/5 366/3/5 365/3/5
f 369/3/5 367/3/5 366/3/5
f 370/3/5 367/3/5 369/3/5
f 374/3/5 372/3/5 371/3/5
f 375/3/5 372/3/5 374/3/5
f 378/3/5 374/3/5 373/3/5
f 379/3/5 374/3/5 378/3/5
f 380/3/5 376/3/5 375/3/5
f 381/3/5 376/3/5 380/3/5
f 383/3/5 378/3/5 377/3/5
f 384/3/5 378/3/5 383/3/5
f 387/3/5 382/3/5 381/3/5
f 388/3/5 382/3/5 387/3/5
f 389/3/5 385/3/5 384/3/5
f 390/3/5 385/3/5 389/3/5
f 391/3/5 387/3/5 386/3/5
f 392/3/5 387/3/5 391/3/5
f 393/3/5 391/3/5 390/3/5
f 394/3/5 391/3/5 393/3/5
f 395/1/6 396/1/6 397/1/6
f 397/1/6 396/1/6 398/1/6
f 399/1/6 400/1/6 401/1/6
f 401/1/6 400/1/6 402/1/6
f 403/1/6 404/1/6 405/1/6
f 405/1/6 404/1/6 406/1/6
f 407/1/6 408/1/6 409/1/6
f 409/1/6 408/1/6 410/1/6
f 411/1/6 412/1/6 413/1/6
f 413/1/6 412/1/6 414/1/6
f 415/3/6 416/3/6 417/3/6
f 417/3/6 416/3/6 418/3/6
f 419/3/6 420/3/6 422/3/6
f 422/3/6 420/3/6 423/3/6
f 421/3/6 422/3/6 426/3/6
f 426/3/6 422/3/6 427/3/6
f 423/3/6 424/3/6 428/3/6
f 428/3/6 424/3/6 429/3/6
f 425/3/6 426/3/6 431/3/6
f 431/3/6 426/3/6 432/3/6
f 429/3/6 430/3/6 435/3/6
f 435/3/6 430/3/6 436/3/6
f 432/3/6 433/3/6 437/3/6
f 437/3/6 433/3/6 438/3/6
f 434/3/6 435/3/6 439/3/6
f 439/3/6 435/3/6 440/3/6
f 438/3/6 439/3/6 441/3/6
f 441/3/6 439/3/6 442/3/6
f 443/3/6 444/3/6 446/3/6
f 446/3/6 444/3/6 447/3/6
f 445/3/6 446/3/6 449/3/6
f 449/3/6 446/3/6 450/3/6
f 447/3/6 448/3/6 451/3/6
f 451/3/6 448/3/6 452/3/6
f 450/3/6 451/3/6 453/3/6
f 453/3/6 451/3/6 454/3/6
