# MagicaVoxel @ Ephtracy

# material
mtllib ammoBox.mtl
usemtl palette

# normals
vn -1 0 0
vn 1 0 0
vn 0 0 1
vn 0 0 -1
vn 0 -1 0
vn 0 1 0

# texcoords
vt 0.208984 0.5
vt 0.369141 0.5
vt 0.650391 0.5
vt 0.677734 0.5

# verts
v -10 0 10
v -10 0 -10
v -10 6 10
v -10 6 -10
v -9 6 9
v -9 6 -9
v -9 7 9
v -9 7 -9
v -4 7 4
v -4 7 -4
v -4 9 4
v -4 9 -4
v 8 0 8
v 8 0 -8
v 8 6 8
v 8 6 -8
v -8 0 8
v -8 0 -8
v -8 6 8
v -8 6 -8
v 4 7 4
v 4 7 3
v 4 7 -3
v 4 7 -4
v 4 9 4
v 4 9 3
v 4 9 -3
v 4 9 -4
v 5 7 3
v 5 7 2
v 5 7 -2
v 5 7 -3
v 5 9 3
v 5 9 2
v 5 9 -2
v 5 9 -3
v 6 7 2
v 6 7 -2
v 6 9 2
v 6 9 -2
v 9 6 9
v 9 6 -9
v 9 7 9
v 9 7 -9
v 10 0 10
v 10 0 -10
v 10 6 10
v 10 6 -10
v -10 0 10
v -10 6 10
v 10 0 10
v 10 6 10
v -9 6 9
v -9 7 9
v 9 6 9
v 9 7 9
v -4 7 4
v -4 9 4
v -2 7 4
v -2 9 4
v 4 7 4
v 4 9 4
v 4 7 3
v 4 9 3
v 5 7 3
v 5 9 3
v 5 7 2
v 5 9 2
v 6 7 2
v 6 9 2
v -8 0 -8
v -8 6 -8
v 8 0 -8
v 8 6 -8
v -8 0 8
v -8 6 8
v 8 0 8
v 8 6 8
v 5 7 -2
v 5 9 -2
v 6 7 -2
v 6 9 -2
v 4 7 -3
v 4 9 -3
v 5 7 -3
v 5 9 -3
v -4 7 -4
v -4 9 -4
v -2 7 -4
v -2 9 -4
v 4 7 -4
v 4 9 -4
v -9 6 -9
v -9 7 -9
v 9 6 -9
v 9 7 -9
v -10 0 -10
v -10 6 -10
v 10 0 -10
v 10 6 -10
v -10 0 10
v 10 0 10
v -8 0 8
v 8 0 8
v -8 0 -8
v 8 0 -8
v -10 0 -10
v 10 0 -10
v -8 6 8
v 8 6 8
v -8 6 -8
v 8 6 -8
v -10 6 10
v 10 6 10
v -9 6 9
v 9 6 9
v -9 6 -9
v 9 6 -9
v -10 6 -10
v 10 6 -10
v -9 7 9
v 9 7 9
v -4 7 4
v -2 7 4
v 4 7 4
v 4 7 3
v 5 7 3
v 5 7 2
v 6 7 2
v 5 7 -2
v 6 7 -2
v 4 7 -3
v 5 7 -3
v -4 7 -4
v -2 7 -4
v 4 7 -4
v -9 7 -9
v 9 7 -9
v -4 9 4
v -2 9 4
v 4 9 4
v 4 9 3
v 5 9 3
v 5 9 2
v 6 9 2
v 5 9 -2
v 6 9 -2
v 4 9 -3
v 5 9 -3
v -4 9 -4
v -2 9 -4
v 4 9 -4

# faces
f 3/4/1 2/4/1 1/4/1
f 4/4/1 2/4/1 3/4/1
f 7/3/1 6/3/1 5/3/1
f 8/3/1 6/3/1 7/3/1
f 11/2/1 10/2/1 9/2/1
f 12/2/1 10/2/1 11/2/1
f 15/4/1 14/4/1 13/4/1
f 16/4/1 14/4/1 15/4/1
f 17/4/2 18/4/2 19/4/2
f 19/4/2 18/4/2 20/4/2
f 21/1/2 22/1/2 25/1/2
f 25/1/2 22/1/2 26/1/2
f 23/1/2 24/1/2 27/1/2
f 27/1/2 24/1/2 28/1/2
f 29/1/2 30/1/2 33/1/2
f 33/1/2 30/1/2 34/1/2
f 31/1/2 32/1/2 35/1/2
f 35/1/2 32/1/2 36/1/2
f 37/1/2 38/1/2 39/1/2
f 39/1/2 38/1/2 40/1/2
f 41/3/2 42/3/2 43/3/2
f 43/3/2 42/3/2 44/3/2
f 45/4/2 46/4/2 47/4/2
f 47/4/2 46/4/2 48/4/2
f 51/4/3 50/4/3 49/4/3
f 52/4/3 50/4/3 51/4/3
f 55/3/3 54/3/3 53/3/3
f 56/3/3 54/3/3 55/3/3
f 59/2/3 58/2/3 57/2/3
f 60/2/3 58/2/3 59/2/3
f 61/1/3 60/1/3 59/1/3
f 62/1/3 60/1/3 61/1/3
f 65/1/3 64/1/3 63/1/3
f 66/1/3 64/1/3 65/1/3
f 69/1/3 68/1/3 67/1/3
f 70/1/3 68/1/3 69/1/3
f 73/4/3 72/4/3 71/4/3
f 74/4/3 72/4/3 73/4/3
f 75/4/4 76/4/4 77/4/4
f 77/4/4 76/4/4 78/4/4
f 79/1/4 80/1/4 81/1/4
f 81/1/4 80/1/4 82/1/4
f 83/1/4 84/1/4 85/1/4
f 85/1/4 84/1/4 86/1/4
f 87/2/4 88/2/4 89/2/4
f 89/2/4 88/2/4 90/2/4
f 89/1/4 90/1/4 91/1/4
f 91/1/4 90/1/4 92/1/4
f 93/3/4 94/3/4 95/3/4
f 95/3/4 94/3/4 96/3/4
f 97/4/4 98/4/4 99/4/4
f 99/4/4 98/4/4 100/4/4
f 103/4/5 102/4/5 101/4/5
f 104/4/5 102/4/5 103/4/5
f 105/4/5 103/4/5 101/4/5
f 106/4/5 102/4/5 104/4/5
f 107/4/5 105/4/5 101/4/5
f 107/4/5 106/4/5 105/4/5
f 108/4/5 102/4/5 106/4/5
f 108/4/5 106/4/5 107/4/5
f 111/3/5 110/3/5 109/3/5
f 112/3/5 110/3/5 111/3/5
f 113/4/6 114/4/6 115/4/6
f 115/4/6 114/4/6 116/4/6
f 113/4/6 115/4/6 117/4/6
f 116/4/6 114/4/6 118/4/6
f 113/4/6 117/4/6 119/4/6
f 117/4/6 118/4/6 119/4/6
f 118/4/6 114/4/6 120/4/6
f 119/4/6 118/4/6 120/4/6
f 121/3/6 122/3/6 123/3/6
f 123/3/6 122/3/6 124/3/6
f 124/3/6 122/3/6 125/3/6
f 125/3/6 122/3/6 126/3/6
f 126/3/6 122/3/6 127/3/6
f 127/3/6 122/3/6 128/3/6
f 128/3/6 122/3/6 129/3/6
f 129/3/6 122/3/6 131/3/6
f 130/3/6 131/3/6 133/3/6
f 121/3/6 123/3/6 134/3/6
f 132/3/6 133/3/6 136/3/6
f 134/3/6 135/3/6 137/3/6
f 135/3/6 136/3/6 137/3/6
f 121/3/6 134/3/6 137/3/6
f 136/3/6 133/3/6 138/3/6
f 137/3/6 136/3/6 138/3/6
f 131/3/6 122/3/6 138/3/6
f 133/3/6 131/3/6 138/3/6
f 140/1/6 141/1/6 142/1/6
f 142/1/6 143/1/6 144/1/6
f 142/1/6 144/1/6 146/1/6
f 144/1/6 145/1/6 146/1/6
f 146/1/6 145/1/6 147/1/6
f 140/1/6 142/1/6 148/1/6
f 142/1/6 146/1/6 148/1/6
f 148/1/6 146/1/6 149/1/6
f 139/2/6 140/2/6 150/2/6
f 140/1/6 148/1/6 151/1/6
f 150/2/6 140/2/6 151/2/6
f 151/1/6 148/1/6 152/1/6
