# MagicaVoxel @ Ephtracy

# material
mtllib room.mtl
usemtl palette

# normals
vn -1 0 0
vn 1 0 0
vn 0 0 1
vn 0 0 -1
vn 0 -1 0
vn 0 1 0

# texcoords
vt 0.0449219 0.5
vt 0.0917969 0.5
vt 0.181641 0.5

# verts
v -20 0 40
v -20 0 -40
v -20 40 40
v -20 40 -40
v -9 0 32
v -9 0 18
v -9 0 -16
v -9 0 -30
v -9 1 19
v -9 1 18
v -9 1 -16
v -9 1 -17
v -9 2 20
v -9 2 19
v -9 2 -17
v -9 2 -18
v -9 3 21
v -9 3 20
v -9 3 -18
v -9 3 -19
v -9 4 22
v -9 4 21
v -9 4 -19
v -9 4 -20
v -9 5 23
v -9 5 22
v -9 5 -20
v -9 5 -21
v -9 6 24
v -9 6 23
v -9 6 -21
v -9 6 -22
v -9 7 25
v -9 7 24
v -9 7 -22
v -9 7 -23
v -9 8 32
v -9 8 26
v -9 8 25
v -9 8 -23
v -9 8 -24
v -9 8 -30
v -9 9 27
v -9 9 26
v -9 9 -24
v -9 9 -25
v -9 10 32
v -9 10 28
v -9 10 27
v -9 10 -25
v -9 10 -26
v -9 10 -30
v -9 11 29
v -9 11 28
v -9 11 -26
v -9 11 -27
v -9 12 32
v -9 12 29
v -9 12 -27
v -9 12 -30
v -4 0 19
v -4 0 18
v -4 0 -16
v -4 0 -17
v -4 1 20
v -4 1 19
v -4 1 18
v -4 1 -16
v -4 1 -17
v -4 1 -18
v -4 2 21
v -4 2 20
v -4 2 19
v -4 2 -17
v -4 2 -18
v -4 2 -19
v -4 3 22
v -4 3 21
v -4 3 20
v -4 3 -18
v -4 3 -19
v -4 3 -20
v -4 4 23
v -4 4 22
v -4 4 21
v -4 4 -19
v -4 4 -20
v -4 4 -21
v -4 5 24
v -4 5 23
v -4 5 22
v -4 5 -20
v -4 5 -21
v -4 5 -22
v -4 6 25
v -4 6 24
v -4 6 23
v -4 6 -21
v -4 6 -22
v -4 6 -23
v -4 7 26
v -4 7 25
v -4 7 24
v -4 7 -22
v -4 7 -23
v -4 7 -24
v -4 8 27
v -4 8 26
v -4 8 25
v -4 8 -23
v -4 8 -24
v -4 8 -25
v -4 9 28
v -4 9 27
v -4 9 26
v -4 9 -24
v -4 9 -25
v -4 9 -26
v -4 10 32
v -4 10 28
v -4 10 27
v -4 10 -25
v -4 10 -26
v -4 10 -30
v -4 11 29
v -4 11 28
v -4 11 -26
v -4 11 -27
v -4 12 32
v -4 12 29
v -4 12 -27
v -4 12 -30
v 17 8 32
v 17 8 -30
v 17 10 32
v 17 10 -30
v -19 0 39
v -19 0 -39
v -19 8 39
v -19 8 -39
v -19 10 39
v -19 10 -39
v -19 40 39
v -19 40 -39
v -18 8 32
v -18 8 -30
v -18 10 32
v -18 10 -30
v -8 0 19
v -8 0 18
v -8 0 -16
v -8 0 -17
v -8 1 20
v -8 1 19
v -8 1 18
v -8 1 -16
v -8 1 -17
v -8 1 -18
v -8 2 21
v -8 2 20
v -8 2 19
v -8 2 -17
v -8 2 -18
v -8 2 -19
v -8 3 22
v -8 3 21
v -8 3 20
v -8 3 -18
v -8 3 -19
v -8 3 -20
v -8 4 23
v -8 4 22
v -8 4 21
v -8 4 -19
v -8 4 -20
v -8 4 -21
v -8 5 24
v -8 5 23
v -8 5 22
v -8 5 -20
v -8 5 -21
v -8 5 -22
v -8 6 25
v -8 6 24
v -8 6 23
v -8 6 -21
v -8 6 -22
v -8 6 -23
v -8 7 26
v -8 7 25
v -8 7 24
v -8 7 -22
v -8 7 -23
v -8 7 -24
v -8 8 27
v -8 8 26
v -8 8 25
v -8 8 -23
v -8 8 -24
v -8 8 -25
v -8 9 28
v -8 9 27
v -8 9 26
v -8 9 -24
v -8 9 -25
v -8 9 -26
v -8 10 32
v -8 10 28
v -8 10 27
v -8 10 -25
v -8 10 -26
v -8 10 -30
v -8 11 29
v -8 11 28
v -8 11 -26
v -8 11 -27
v -8 12 32
v -8 12 29
v -8 12 -27
v -8 12 -30
v -3 0 32
v -3 0 18
v -3 0 -16
v -3 0 -30
v -3 1 19
v -3 1 18
v -3 1 -16
v -3 1 -17
v -3 2 20
v -3 2 19
v -3 2 -17
v -3 2 -18
v -3 3 21
v -3 3 20
v -3 3 -18
v -3 3 -19
v -3 4 22
v -3 4 21
v -3 4 -19
v -3 4 -20
v -3 5 23
v -3 5 22
v -3 5 -20
v -3 5 -21
v -3 6 24
v -3 6 23
v -3 6 -21
v -3 6 -22
v -3 7 25
v -3 7 24
v -3 7 -22
v -3 7 -23
v -3 8 32
v -3 8 26
v -3 8 25
v -3 8 -23
v -3 8 -24
v -3 8 -30
v -3 9 27
v -3 9 26
v -3 9 -24
v -3 9 -25
v -3 10 32
v -3 10 28
v -3 10 27
v -3 10 -25
v -3 10 -26
v -3 10 -30
v -3 11 29
v -3 11 28
v -3 11 -26
v -3 11 -27
v -3 12 32
v -3 12 29
v -3 12 -27
v -3 12 -30
v 19 0 -39
v 19 0 -40
v 19 1 -39
v 19 1 -40
v 19 8 39
v 19 8 -39
v 19 10 39
v 19 10 -39
v 20 0 40
v 20 0 39
v 20 1 -39
v 20 1 -40
v 20 40 40
v 20 40 39
v 20 40 -39
v 20 40 -40
v -20 0 40
v -20 40 40
v 20 0 40
v 20 40 40
v -9 0 32
v -9 8 32
v -9 10 32
v -9 12 32
v -8 10 32
v -8 12 32
v -4 10 32
v -4 12 32
v -3 0 32
v -3 8 32
v -3 10 32
v -3 12 32
v -9 0 -16
v -9 1 -16
v -8 0 -16
v -8 1 -16
v -4 0 -16
v -4 1 -16
v -3 0 -16
v -3 1 -16
v -9 1 -17
v -9 2 -17
v -8 0 -17
v -8 1 -17
v -8 2 -17
v -4 0 -17
v -4 1 -17
v -4 2 -17
v -3 1 -17
v -3 2 -17
v -9 2 -18
v -9 3 -18
v -8 1 -18
v -8 2 -18
v -8 3 -18
v -4 1 -18
v -4 2 -18
v -4 3 -18
v -3 2 -18
v -3 3 -18
v -9 3 -19
v -9 4 -19
v -8 2 -19
v -8 3 -19
v -8 4 -19
v -4 2 -19
v -4 3 -19
v -4 4 -19
v -3 3 -19
v -3 4 -19
v -9 4 -20
v -9 5 -20
v -8 3 -20
v -8 4 -20
v -8 5 -20
v -4 3 -20
v -4 4 -20
v -4 5 -20
v -3 4 -20
v -3 5 -20
v -9 5 -21
v -9 6 -21
v -8 4 -21
v -8 5 -21
v -8 6 -21
v -4 4 -21
v -4 5 -21
v -4 6 -21
v -3 5 -21
v -3 6 -21
v -9 6 -22
v -9 7 -22
v -8 5 -22
v -8 6 -22
v -8 7 -22
v -4 5 -22
v -4 6 -22
v -4 7 -22
v -3 6 -22
v -3 7 -22
v -9 7 -23
v -9 8 -23
v -8 6 -23
v -8 7 -23
v -8 8 -23
v -4 6 -23
v -4 7 -23
v -4 8 -23
v -3 7 -23
v -3 8 -23
v -9 8 -24
v -9 9 -24
v -8 7 -24
v -8 8 -24
v -8 9 -24
v -4 7 -24
v -4 8 -24
v -4 9 -24
v -3 8 -24
v -3 9 -24
v -9 9 -25
v -9 10 -25
v -8 8 -25
v -8 9 -25
v -8 10 -25
v -4 8 -25
v -4 9 -25
v -4 10 -25
v -3 9 -25
v -3 10 -25
v -9 10 -26
v -9 11 -26
v -8 9 -26
v -8 10 -26
v -8 11 -26
v -4 9 -26
v -4 10 -26
v -4 11 -26
v -3 10 -26
v -3 11 -26
v -9 11 -27
v -9 12 -27
v -8 11 -27
v -8 12 -27
v -4 11 -27
v -4 12 -27
v -3 11 -27
v -3 12 -27
v -18 8 -30
v -18 10 -30
v -9 8 -30
v -9 10 -30
v -3 8 -30
v -3 10 -30
v 17 8 -30
v 17 10 -30
v -19 0 -39
v -19 8 -39
v -19 10 -39
v -19 40 -39
v 19 0 -39
v 19 1 -39
v 19 8 -39
v 19 10 -39
v 20 1 -39
v 20 40 -39
v -19 0 39
v -19 8 39
v -19 10 39
v -19 40 39
v 19 8 39
v 19 10 39
v 20 0 39
v 20 40 39
v -18 8 32
v -18 10 32
v -9 8 32
v -9 10 32
v -3 8 32
v -3 10 32
v 17 8 32
v 17 10 32
v -9 11 29
v -9 12 29
v -8 11 29
v -8 12 29
v -4 11 29
v -4 12 29
v -3 11 29
v -3 12 29
v -9 10 28
v -9 11 28
v -8 9 28
v -8 10 28
v -8 11 28
v -4 9 28
v -4 10 28
v -4 11 28
v -3 10 28
v -3 11 28
v -9 9 27
v -9 10 27
v -8 8 27
v -8 9 27
v -8 10 27
v -4 8 27
v -4 9 27
v -4 10 27
v -3 9 27
v -3 10 27
v -9 8 26
v -9 9 26
v -8 7 26
v -8 8 26
v -8 9 26
v -4 7 26
v -4 8 26
v -4 9 26
v -3 8 26
v -3 9 26
v -9 7 25
v -9 8 25
v -8 6 25
v -8 7 25
v -8 8 25
v -4 6 25
v -4 7 25
v -4 8 25
v -3 7 25
v -3 8 25
v -9 6 24
v -9 7 24
v -8 5 24
v -8 6 24
v -8 7 24
v -4 5 24
v -4 6 24
v -4 7 24
v -3 6 24
v -3 7 24
v -9 5 23
v -9 6 23
v -8 4 23
v -8 5 23
v -8 6 23
v -4 4 23
v -4 5 23
v -4 6 23
v -3 5 23
v -3 6 23
v -9 4 22
v -9 5 22
v -8 3 22
v -8 4 22
v -8 5 22
v -4 3 22
v -4 4 22
v -4 5 22
v -3 4 22
v -3 5 22
v -9 3 21
v -9 4 21
v -8 2 21
v -8 3 21
v -8 4 21
v -4 2 21
v -4 3 21
v -4 4 21
v -3 3 21
v -3 4 21
v -9 2 20
v -9 3 20
v -8 1 20
v -8 2 20
v -8 3 20
v -4 1 20
v -4 2 20
v -4 3 20
v -3 2 20
v -3 3 20
v -9 1 19
v -9 2 19
v -8 0 19
v -8 1 19
v -8 2 19
v -4 0 19
v -4 1 19
v -4 2 19
v -3 1 19
v -3 2 19
v -9 0 18
v -9 1 18
v -8 0 18
v -8 1 18
v -4 0 18
v -4 1 18
v -3 0 18
v -3 1 18
v -9 0 -30
v -9 8 -30
v -9 10 -30
v -9 12 -30
v -8 10 -30
v -8 12 -30
v -4 10 -30
v -4 12 -30
v -3 0 -30
v -3 8 -30
v -3 10 -30
v -3 12 -30
v -20 0 -40
v -20 40 -40
v 19 0 -40
v 19 1 -40
v 20 1 -40
v 20 40 -40
v -20 0 40
v 20 0 40
v -19 0 39
v 20 0 39
v -9 0 32
v -3 0 32
v -8 0 19
v -4 0 19
v -9 0 18
v -8 0 18
v -4 0 18
v -3 0 18
v -9 0 -16
v -8 0 -16
v -4 0 -16
v -3 0 -16
v -8 0 -17
v -4 0 -17
v -9 0 -30
v -3 0 -30
v -19 0 -39
v 19 0 -39
v -20 0 -40
v 19 0 -40
v 19 1 -39
v 20 1 -39
v 19 1 -40
v 20 1 -40
v -19 8 39
v 19 8 39
v -18 8 32
v -9 8 32
v -3 8 32
v 17 8 32
v -18 8 -30
v -9 8 -30
v -3 8 -30
v 17 8 -30
v -19 8 -39
v 19 8 -39
v -8 1 20
v -4 1 20
v -9 1 19
v -8 1 19
v -4 1 19
v -3 1 19
v -9 1 18
v -8 1 18
v -4 1 18
v -3 1 18
v -9 1 -16
v -8 1 -16
v -4 1 -16
v -3 1 -16
v -9 1 -17
v -8 1 -17
v -4 1 -17
v -3 1 -17
v -8 1 -18
v -4 1 -18
v -8 2 21
v -4 2 21
v -9 2 20
v -8 2 20
v -4 2 20
v -3 2 20
v -9 2 19
v -8 2 19
v -4 2 19
v -3 2 19
v -9 2 -17
v -8 2 -17
v -4 2 -17
v -3 2 -17
v -9 2 -18
v -8 2 -18
v -4 2 -18
v -3 2 -18
v -8 2 -19
v -4 2 -19
v -8 3 22
v -4 3 22
v -9 3 21
v -8 3 21
v -4 3 21
v -3 3 21
v -9 3 20
v -8 3 20
v -4 3 20
v -3 3 20
v -9 3 -18
v -8 3 -18
v -4 3 -18
v -3 3 -18
v -9 3 -19
v -8 3 -19
v -4 3 -19
v -3 3 -19
v -8 3 -20
v -4 3 -20
v -8 4 23
v -4 4 23
v -9 4 22
v -8 4 22
v -4 4 22
v -3 4 22
v -9 4 21
v -8 4 21
v -4 4 21
v -3 4 21
v -9 4 -19
v -8 4 -19
v -4 4 -19
v -3 4 -19
v -9 4 -20
v -8 4 -20
v -4 4 -20
v -3 4 -20
v -8 4 -21
v -4 4 -21
v -8 5 24
v -4 5 24
v -9 5 23
v -8 5 23
v -4 5 23
v -3 5 23
v -9 5 22
v -8 5 22
v -4 5 22
v -3 5 22
v -9 5 -20
v -8 5 -20
v -4 5 -20
v -3 5 -20
v -9 5 -21
v -8 5 -21
v -4 5 -21
v -3 5 -21
v -8 5 -22
v -4 5 -22
v -8 6 25
v -4 6 25
v -9 6 24
v -8 6 24
v -4 6 24
v -3 6 24
v -9 6 23
v -8 6 23
v -4 6 23
v -3 6 23
v -9 6 -21
v -8 6 -21
v -4 6 -21
v -3 6 -21
v -9 6 -22
v -8 6 -22
v -4 6 -22
v -3 6 -22
v -8 6 -23
v -4 6 -23
v -8 7 26
v -4 7 26
v -9 7 25
v -8 7 25
v -4 7 25
v -3 7 25
v -9 7 24
v -8 7 24
v -4 7 24
v -3 7 24
v -9 7 -22
v -8 7 -22
v -4 7 -22
v -3 7 -22
v -9 7 -23
v -8 7 -23
v -4 7 -23
v -3 7 -23
v -8 7 -24
v -4 7 -24
v -8 8 27
v -4 8 27
v -9 8 26
v -8 8 26
v -4 8 26
v -3 8 26
v -9 8 25
v -8 8 25
v -4 8 25
v -3 8 25
v -9 8 -23
v -8 8 -23
v -4 8 -23
v -3 8 -23
v -9 8 -24
v -8 8 -24
v -4 8 -24
v -3 8 -24
v -8 8 -25
v -4 8 -25
v -8 9 28
v -4 9 28
v -9 9 27
v -8 9 27
v -4 9 27
v -3 9 27
v -9 9 26
v -8 9 26
v -4 9 26
v -3 9 26
v -9 9 -24
v -8 9 -24
v -4 9 -24
v -3 9 -24
v -9 9 -25
v -8 9 -25
v -4 9 -25
v -3 9 -25
v -8 9 -26
v -4 9 -26
v -19 10 39
v 19 10 39
v -18 10 32
v -9 10 32
v -8 10 32
v -4 10 32
v -3 10 32
v 17 10 32
v -9 10 28
v -8 10 28
v -4 10 28
v -3 10 28
v -9 10 27
v -8 10 27
v -4 10 27
v -3 10 27
v -9 10 -25
v -8 10 -25
v -4 10 -25
v -3 10 -25
v -9 10 -26
v -8 10 -26
v -4 10 -26
v -3 10 -26
v -18 10 -30
v -9 10 -30
v -8 10 -30
v -4 10 -30
v -3 10 -30
v 17 10 -30
v -19 10 -39
v 19 10 -39
v -9 11 29
v -8 11 29
v -4 11 29
v -3 11 29
v -9 11 28
v -8 11 28
v -4 11 28
v -3 11 28
v -9 11 -26
v -8 11 -26
v -4 11 -26
v -3 11 -26
v -9 11 -27
v -8 11 -27
v -4 11 -27
v -3 11 -27
v -9 12 32
v -8 12 32
v -4 12 32
v -3 12 32
v -9 12 29
v -8 12 29
v -4 12 29
v -3 12 29
v -9 12 -27
v -8 12 -27
v -4 12 -27
v -3 12 -27
v -9 12 -30
v -8 12 -30
v -4 12 -30
v -3 12 -30
v -20 40 40
v 20 40 40
v -19 40 39
v 20 40 39
v -19 40 -39
v 20 40 -39
v -20 40 -40
v 20 40 -40

# faces
f 3/1/1 2/1/1 1/1/1
f 4/1/1 2/1/1 3/1/1
f 9/3/1 6/3/1 5/3/1
f 10/3/1 6/3/1 9/3/1
f 11/3/1 8/3/1 7/3/1
f 12/3/1 8/3/1 11/3/1
f 13/3/1 9/3/1 5/3/1
f 14/3/1 9/3/1 13/3/1
f 15/3/1 8/3/1 12/3/1
f 16/3/1 8/3/1 15/3/1
f 17/3/1 13/3/1 5/3/1
f 18/3/1 13/3/1 17/3/1
f 19/3/1 8/3/1 16/3/1
f 20/3/1 8/3/1 19/3/1
f 21/3/1 17/3/1 5/3/1
f 22/3/1 17/3/1 21/3/1
f 23/3/1 8/3/1 20/3/1
f 24/3/1 8/3/1 23/3/1
f 25/3/1 21/3/1 5/3/1
f 26/3/1 21/3/1 25/3/1
f 27/3/1 8/3/1 24/3/1
f 28/3/1 8/3/1 27/3/1
f 29/3/1 25/3/1 5/3/1
f 30/3/1 25/3/1 29/3/1
f 31/3/1 8/3/1 28/3/1
f 32/3/1 8/3/1 31/3/1
f 33/3/1 29/3/1 5/3/1
f 34/3/1 29/3/1 33/3/1
f 35/3/1 8/3/1 32/3/1
f 36/3/1 8/3/1 35/3/1
f 37/3/1 33/3/1 5/3/1
f 38/3/1 33/3/1 37/3/1
f 39/3/1 33/3/1 38/3/1
f 40/3/1 8/3/1 36/3/1
f 41/3/1 8/3/1 40/3/1
f 42/3/1 8/3/1 41/3/1
f 43/3/1 38/3/1 37/3/1
f 44/3/1 38/3/1 43/3/1
f 45/3/1 42/3/1 41/3/1
f 46/3/1 42/3/1 45/3/1
f 47/3/1 43/3/1 37/3/1
f 48/3/1 43/3/1 47/3/1
f 49/3/1 43/3/1 48/3/1
f 50/3/1 42/3/1 46/3/1
f 51/3/1 42/3/1 50/3/1
f 52/3/1 42/3/1 51/3/1
f 53/3/1 48/3/1 47/3/1
f 54/3/1 48/3/1 53/3/1
f 55/3/1 52/3/1 51/3/1
f 56/3/1 52/3/1 55/3/1
f 57/3/1 53/3/1 47/3/1
f 58/3/1 53/3/1 57/3/1
f 59/3/1 52/3/1 56/3/1
f 60/3/1 52/3/1 59/3/1
f 66/3/1 62/3/1 61/3/1
f 67/3/1 62/3/1 66/3/1
f 68/3/1 64/3/1 63/3/1
f 69/3/1 64/3/1 68/3/1
f 72/3/1 66/3/1 65/3/1
f 73/3/1 66/3/1 72/3/1
f 74/3/1 70/3/1 69/3/1
f 75/3/1 70/3/1 74/3/1
f 78/3/1 72/3/1 71/3/1
f 79/3/1 72/3/1 78/3/1
f 80/3/1 76/3/1 75/3/1
f 81/3/1 76/3/1 80/3/1
f 84/3/1 78/3/1 77/3/1
f 85/3/1 78/3/1 84/3/1
f 86/3/1 82/3/1 81/3/1
f 87/3/1 82/3/1 86/3/1
f 90/3/1 84/3/1 83/3/1
f 91/3/1 84/3/1 90/3/1
f 92/3/1 88/3/1 87/3/1
f 93/3/1 88/3/1 92/3/1
f 96/3/1 90/3/1 89/3/1
f 97/3/1 90/3/1 96/3/1
f 98/3/1 94/3/1 93/3/1
f 99/3/1 94/3/1 98/3/1
f 102/3/1 96/3/1 95/3/1
f 103/3/1 96/3/1 102/3/1
f 104/3/1 100/3/1 99/3/1
f 105/3/1 100/3/1 104/3/1
f 108/3/1 102/3/1 101/3/1
f 109/3/1 102/3/1 108/3/1
f 110/3/1 106/3/1 105/3/1
f 111/3/1 106/3/1 110/3/1
f 114/3/1 108/3/1 107/3/1
f 115/3/1 108/3/1 114/3/1
f 116/3/1 112/3/1 111/3/1
f 117/3/1 112/3/1 116/3/1
f 120/3/1 114/3/1 113/3/1
f 121/3/1 114/3/1 120/3/1
f 122/3/1 118/3/1 117/3/1
f 123/3/1 118/3/1 122/3/1
f 125/3/1 120/3/1 119/3/1
f 126/3/1 120/3/1 125/3/1
f 127/3/1 124/3/1 123/3/1
f 128/3/1 124/3/1 127/3/1
f 129/3/1 125/3/1 119/3/1
f 130/3/1 125/3/1 129/3/1
f 131/3/1 124/3/1 128/3/1
f 132/3/1 124/3/1 131/3/1
f 135/2/1 134/2/1 133/2/1
f 136/2/1 134/2/1 135/2/1
f 137/1/2 138/1/2 139/1/2
f 139/1/2 138/1/2 140/1/2
f 141/1/2 142/1/2 143/1/2
f 143/1/2 142/1/2 144/1/2
f 145/2/2 146/2/2 147/2/2
f 147/2/2 146/2/2 148/2/2
f 149/3/2 150/3/2 154/3/2
f 154/3/2 150/3/2 155/3/2
f 151/3/2 152/3/2 156/3/2
f 156/3/2 152/3/2 157/3/2
f 153/3/2 154/3/2 160/3/2
f 160/3/2 154/3/2 161/3/2
f 157/3/2 158/3/2 162/3/2
f 162/3/2 158/3/2 163/3/2
f 159/3/2 160/3/2 166/3/2
f 166/3/2 160/3/2 167/3/2
f 163/3/2 164/3/2 168/3/2
f 168/3/2 164/3/2 169/3/2
f 165/3/2 166/3/2 172/3/2
f 172/3/2 166/3/2 173/3/2
f 169/3/2 170/3/2 174/3/2
f 174/3/2 170/3/2 175/3/2
f 171/3/2 172/3/2 178/3/2
f 178/3/2 172/3/2 179/3/2
f 175/3/2 176/3/2 180/3/2
f 180/3/2 176/3/2 181/3/2
f 177/3/2 178/3/2 184/3/2
f 184/3/2 178/3/2 185/3/2
f 181/3/2 182/3/2 186/3/2
f 186/3/2 182/3/2 187/3/2
f 183/3/2 184/3/2 190/3/2
f 190/3/2 184/3/2 191/3/2
f 187/3/2 188/3/2 192/3/2
f 192/3/2 188/3/2 193/3/2
f 189/3/2 190/3/2 196/3/2
f 196/3/2 190/3/2 197/3/2
f 193/3/2 194/3/2 198/3/2
f 198/3/2 194/3/2 199/3/2
f 195/3/2 196/3/2 202/3/2
f 202/3/2 196/3/2 203/3/2
f 199/3/2 200/3/2 204/3/2
f 204/3/2 200/3/2 205/3/2
f 201/3/2 202/3/2 208/3/2
f 208/3/2 202/3/2 209/3/2
f 205/3/2 206/3/2 210/3/2
f 210/3/2 206/3/2 211/3/2
f 207/3/2 208/3/2 213/3/2
f 213/3/2 208/3/2 214/3/2
f 211/3/2 212/3/2 215/3/2
f 215/3/2 212/3/2 216/3/2
f 207/3/2 213/3/2 217/3/2
f 217/3/2 213/3/2 218/3/2
f 216/3/2 212/3/2 219/3/2
f 219/3/2 212/3/2 220/3/2
f 221/3/2 222/3/2 225/3/2
f 225/3/2 222/3/2 226/3/2
f 223/3/2 224/3/2 227/3/2
f 227/3/2 224/3/2 228/3/2
f 221/3/2 225/3/2 229/3/2
f 229/3/2 225/3/2 230/3/2
f 228/3/2 224/3/2 231/3/2
f 231/3/2 224/3/2 232/3/2
f 221/3/2 229/3/2 233/3/2
f 233/3/2 229/3/2 234/3/2
f 232/3/2 224/3/2 235/3/2
f 235/3/2 224/3/2 236/3/2
f 221/3/2 233/3/2 237/3/2
f 237/3/2 233/3/2 238/3/2
f 236/3/2 224/3/2 239/3/2
f 239/3/2 224/3/2 240/3/2
f 221/3/2 237/3/2 241/3/2
f 241/3/2 237/3/2 242/3/2
f 240/3/2 224/3/2 243/3/2
f 243/3/2 224/3/2 244/3/2
f 221/3/2 241/3/2 245/3/2
f 245/3/2 241/3/2 246/3/2
f 244/3/2 224/3/2 247/3/2
f 247/3/2 224/3/2 248/3/2
f 221/3/2 245/3/2 249/3/2
f 249/3/2 245/3/2 250/3/2
f 248/3/2 224/3/2 251/3/2
f 251/3/2 224/3/2 252/3/2
f 221/3/2 249/3/2 253/3/2
f 253/3/2 249/3/2 254/3/2
f 254/3/2 249/3/2 255/3/2
f 252/3/2 224/3/2 256/3/2
f 256/3/2 224/3/2 257/3/2
f 257/3/2 224/3/2 258/3/2
f 253/3/2 254/3/2 259/3/2
f 259/3/2 254/3/2 260/3/2
f 257/3/2 258/3/2 261/3/2
f 261/3/2 258/3/2 262/3/2
f 253/3/2 259/3/2 263/3/2
f 263/3/2 259/3/2 264/3/2
f 264/3/2 259/3/2 265/3/2
f 262/3/2 258/3/2 266/3/2
f 266/3/2 258/3/2 267/3/2
f 267/3/2 258/3/2 268/3/2
f 263/3/2 264/3/2 269/3/2
f 269/3/2 264/3/2 270/3/2
f 267/3/2 268/3/2 271/3/2
f 271/3/2 268/3/2 272/3/2
f 263/3/2 269/3/2 273/3/2
f 273/3/2 269/3/2 274/3/2
f 272/3/2 268/3/2 275/3/2
f 275/3/2 268/3/2 276/3/2
f 277/1/2 278/1/2 279/1/2
f 279/1/2 278/1/2 280/1/2
f 281/2/2 282/2/2 283/2/2
f 283/2/2 282/2/2 284/2/2
f 285/1/2 286/1/2 289/1/2
f 289/1/2 286/1/2 290/1/2
f 287/1/2 288/1/2 291/1/2
f 291/1/2 288/1/2 292/1/2
f 295/1/3 294/1/3 293/1/3
f 296/1/3 294/1/3 295/1/3
f 301/3/3 300/3/3 299/3/3
f 302/3/3 300/3/3 301/3/3
f 305/3/3 298/3/3 297/3/3
f 306/3/3 298/3/3 305/3/3
f 307/3/3 304/3/3 303/3/3
f 308/3/3 304/3/3 307/3/3
f 311/3/3 310/3/3 309/3/3
f 312/3/3 310/3/3 311/3/3
f 315/3/3 314/3/3 313/3/3
f 316/3/3 314/3/3 315/3/3
f 320/3/3 318/3/3 317/3/3
f 321/3/3 318/3/3 320/3/3
f 322/3/3 320/3/3 319/3/3
f 323/3/3 320/3/3 322/3/3
f 325/3/3 324/3/3 323/3/3
f 326/3/3 324/3/3 325/3/3
f 330/3/3 328/3/3 327/3/3
f 331/3/3 328/3/3 330/3/3
f 332/3/3 330/3/3 329/3/3
f 333/3/3 330/3/3 332/3/3
f 335/3/3 334/3/3 333/3/3
f 336/3/3 334/3/3 335/3/3
f 340/3/3 338/3/3 337/3/3
f 341/3/3 338/3/3 340/3/3
f 342/3/3 340/3/3 339/3/3
f 343/3/3 340/3/3 342/3/3
f 345/3/3 344/3/3 343/3/3
f 346/3/3 344/3/3 345/3/3
f 350/3/3 348/3/3 347/3/3
f 351/3/3 348/3/3 350/3/3
f 352/3/3 350/3/3 349/3/3
f 353/3/3 350/3/3 352/3/3
f 355/3/3 354/3/3 353/3/3
f 356/3/3 354/3/3 355/3/3
f 360/3/3 358/3/3 357/3/3
f 361/3/3 358/3/3 360/3/3
f 362/3/3 360/3/3 359/3/3
f 363/3/3 360/3/3 362/3/3
f 365/3/3 364/3/3 363/3/3
f 366/3/3 364/3/3 365/3/3
f 370/3/3 368/3/3 367/3/3
f 371/3/3 368/3/3 370/3/3
f 372/3/3 370/3/3 369/3/3
f 373/3/3 370/3/3 372/3/3
f 375/3/3 374/3/3 373/3/3
f 376/3/3 374/3/3 375/3/3
f 380/3/3 378/3/3 377/3/3
f 381/3/3 378/3/3 380/3/3
f 382/3/3 380/3/3 379/3/3
f 383/3/3 380/3/3 382/3/3
f 385/3/3 384/3/3 383/3/3
f 386/3/3 384/3/3 385/3/3
f 390/3/3 388/3/3 387/3/3
f 391/3/3 388/3/3 390/3/3
f 392/3/3 390/3/3 389/3/3
f 393/3/3 390/3/3 392/3/3
f 395/3/3 394/3/3 393/3/3
f 396/3/3 394/3/3 395/3/3
f 400/3/3 398/3/3 397/3/3
f 401/3/3 398/3/3 400/3/3
f 402/3/3 400/3/3 399/3/3
f 403/3/3 400/3/3 402/3/3
f 405/3/3 404/3/3 403/3/3
f 406/3/3 404/3/3 405/3/3
f 410/3/3 408/3/3 407/3/3
f 411/3/3 408/3/3 410/3/3
f 412/3/3 410/3/3 409/3/3
f 413/3/3 410/3/3 412/3/3
f 415/3/3 414/3/3 413/3/3
f 416/3/3 414/3/3 415/3/3
f 419/3/3 418/3/3 417/3/3
f 420/3/3 418/3/3 419/3/3
f 423/3/3 422/3/3 421/3/3
f 424/3/3 422/3/3 423/3/3
f 427/2/3 426/2/3 425/2/3
f 428/2/3 426/2/3 427/2/3
f 431/2/3 430/2/3 429/2/3
f 432/2/3 430/2/3 431/2/3
f 437/1/3 434/1/3 433/1/3
f 438/1/3 434/1/3 437/1/3
f 439/1/3 434/1/3 438/1/3
f 440/1/3 436/1/3 435/1/3
f 441/1/3 439/1/3 438/1/3
f 441/1/3 440/1/3 439/1/3
f 442/1/3 436/1/3 440/1/3
f 442/1/3 440/1/3 441/1/3
f 443/1/4 444/1/4 447/1/4
f 445/1/4 446/1/4 448/1/4
f 443/1/4 447/1/4 449/1/4
f 447/1/4 448/1/4 449/1/4
f 448/1/4 446/1/4 450/1/4
f 449/1/4 448/1/4 450/1/4
f 451/2/4 452/2/4 453/2/4
f 453/2/4 452/2/4 454/2/4
f 455/2/4 456/2/4 457/2/4
f 457/2/4 456/2/4 458/2/4
f 459/3/4 460/3/4 461/3/4
f 461/3/4 460/3/4 462/3/4
f 463/3/4 464/3/4 465/3/4
f 465/3/4 464/3/4 466/3/4
f 467/3/4 468/3/4 470/3/4
f 470/3/4 468/3/4 471/3/4
f 469/3/4 470/3/4 472/3/4
f 472/3/4 470/3/4 473/3/4
f 473/3/4 474/3/4 475/3/4
f 475/3/4 474/3/4 476/3/4
f 477/3/4 478/3/4 480/3/4
f 480/3/4 478/3/4 481/3/4
f 479/3/4 480/3/4 482/3/4
f 482/3/4 480/3/4 483/3/4
f 483/3/4 484/3/4 485/3/4
f 485/3/4 484/3/4 486/3/4
f 487/3/4 488/3/4 490/3/4
f 490/3/4 488/3/4 491/3/4
f 489/3/4 490/3/4 492/3/4
f 492/3/4 490/3/4 493/3/4
f 493/3/4 494/3/4 495/3/4
f 495/3/4 494/3/4 496/3/4
f 497/3/4 498/3/4 500/3/4
f 500/3/4 498/3/4 501/3/4
f 499/3/4 500/3/4 502/3/4
f 502/3/4 500/3/4 503/3/4
f 503/3/4 504/3/4 505/3/4
f 505/3/4 504/3/4 506/3/4
f 507/3/4 508/3/4 510/3/4
f 510/3/4 508/3/4 511/3/4
f 509/3/4 510/3/4 512/3/4
f 512/3/4 510/3/4 513/3/4
f 513/3/4 514/3/4 515/3/4
f 515/3/4 514/3/4 516/3/4
f 517/3/4 518/3/4 520/3/4
f 520/3/4 518/3/4 521/3/4
f 519/3/4 520/3/4 522/3/4
f 522/3/4 520/3/4 523/3/4
f 523/3/4 524/3/4 525/3/4
f 525/3/4 524/3/4 526/3/4
f 527/3/4 528/3/4 530/3/4
f 530/3/4 528/3/4 531/3/4
f 529/3/4 530/3/4 532/3/4
f 532/3/4 530/3/4 533/3/4
f 533/3/4 534/3/4 535/3/4
f 535/3/4 534/3/4 536/3/4
f 537/3/4 538/3/4 540/3/4
f 540/3/4 538/3/4 541/3/4
f 539/3/4 540/3/4 542/3/4
f 542/3/4 540/3/4 543/3/4
f 543/3/4 544/3/4 545/3/4
f 545/3/4 544/3/4 546/3/4
f 547/3/4 548/3/4 550/3/4
f 550/3/4 548/3/4 551/3/4
f 549/3/4 550/3/4 552/3/4
f 552/3/4 550/3/4 553/3/4
f 553/3/4 554/3/4 555/3/4
f 555/3/4 554/3/4 556/3/4
f 557/3/4 558/3/4 560/3/4
f 560/3/4 558/3/4 561/3/4
f 559/3/4 560/3/4 562/3/4
f 562/3/4 560/3/4 563/3/4
f 563/3/4 564/3/4 565/3/4
f 565/3/4 564/3/4 566/3/4
f 567/3/4 568/3/4 569/3/4
f 569/3/4 568/3/4 570/3/4
f 571/3/4 572/3/4 573/3/4
f 573/3/4 572/3/4 574/3/4
f 577/3/4 578/3/4 579/3/4
f 579/3/4 578/3/4 580/3/4
f 575/3/4 576/3/4 583/3/4
f 583/3/4 576/3/4 584/3/4
f 581/3/4 582/3/4 585/3/4
f 585/3/4 582/3/4 586/3/4
f 587/1/4 588/1/4 589/1/4
f 589/1/4 588/1/4 590/1/4
f 590/1/4 588/1/4 591/1/4
f 591/1/4 588/1/4 592/1/4
f 595/1/5 594/1/5 593/1/5
f 596/1/5 594/1/5 595/1/5
f 599/3/5 598/3/5 597/3/5
f 600/3/5 598/3/5 599/3/5
f 601/3/5 599/3/5 597/3/5
f 602/3/5 599/3/5 601/3/5
f 603/3/5 598/3/5 600/3/5
f 604/3/5 598/3/5 603/3/5
f 609/3/5 606/3/5 605/3/5
f 610/3/5 608/3/5 607/3/5
f 611/3/5 609/3/5 605/3/5
f 611/3/5 610/3/5 609/3/5
f 612/3/5 608/3/5 610/3/5
f 612/3/5 610/3/5 611/3/5
f 613/1/5 595/1/5 593/1/5
f 615/1/5 613/1/5 593/1/5
f 615/1/5 614/1/5 613/1/5
f 616/1/5 614/1/5 615/1/5
f 619/1/5 618/1/5 617/1/5
f 620/1/5 618/1/5 619/1/5
f 623/2/5 622/2/5 621/2/5
f 624/2/5 622/2/5 623/2/5
f 625/2/5 622/2/5 624/2/5
f 626/2/5 622/2/5 625/2/5
f 627/2/5 623/2/5 621/2/5
f 630/2/5 622/2/5 626/2/5
f 631/2/5 629/2/5 628/2/5
f 631/2/5 630/2/5 629/2/5
f 631/2/5 627/2/5 621/2/5
f 631/2/5 628/2/5 627/2/5
f 632/2/5 622/2/5 630/2/5
f 632/2/5 630/2/5 631/2/5
f 633/3/6 634/3/6 636/3/6
f 636/3/6 634/3/6 637/3/6
f 635/3/6 636/3/6 639/3/6
f 639/3/6 636/3/6 640/3/6
f 637/3/6 638/3/6 641/3/6
f 641/3/6 638/3/6 642/3/6
f 643/3/6 644/3/6 647/3/6
f 647/3/6 644/3/6 648/3/6
f 645/3/6 646/3/6 649/3/6
f 649/3/6 646/3/6 650/3/6
f 648/3/6 649/3/6 651/3/6
f 651/3/6 649/3/6 652/3/6
f 653/3/6 654/3/6 656/3/6
f 656/3/6 654/3/6 657/3/6
f 655/3/6 656/3/6 659/3/6
f 659/3/6 656/3/6 660/3/6
f 657/3/6 658/3/6 661/3/6
f 661/3/6 658/3/6 662/3/6
f 663/3/6 664/3/6 667/3/6
f 667/3/6 664/3/6 668/3/6
f 665/3/6 666/3/6 669/3/6
f 669/3/6 666/3/6 670/3/6
f 668/3/6 669/3/6 671/3/6
f 671/3/6 669/3/6 672/3/6
f 673/3/6 674/3/6 676/3/6
f 676/3/6 674/3/6 677/3/6
f 675/3/6 676/3/6 679/3/6
f 679/3/6 676/3/6 680/3/6
f 677/3/6 678/3/6 681/3/6
f 681/3/6 678/3/6 682/3/6
f 683/3/6 684/3/6 687/3/6
f 687/3/6 684/3/6 688/3/6
f 685/3/6 686/3/6 689/3/6
f 689/3/6 686/3/6 690/3/6
f 688/3/6 689/3/6 691/3/6
f 691/3/6 689/3/6 692/3/6
f 693/3/6 694/3/6 696/3/6
f 696/3/6 694/3/6 697/3/6
f 695/3/6 696/3/6 699/3/6
f 699/3/6 696/3/6 700/3/6
f 697/3/6 698/3/6 701/3/6
f 701/3/6 698/3/6 702/3/6
f 703/3/6 704/3/6 707/3/6
f 707/3/6 704/3/6 708/3/6
f 705/3/6 706/3/6 709/3/6
f 709/3/6 706/3/6 710/3/6
f 708/3/6 709/3/6 711/3/6
f 711/3/6 709/3/6 712/3/6
f 713/3/6 714/3/6 716/3/6
f 716/3/6 714/3/6 717/3/6
f 715/3/6 716/3/6 719/3/6
f 719/3/6 716/3/6 720/3/6
f 717/3/6 718/3/6 721/3/6
f 721/3/6 718/3/6 722/3/6
f 723/3/6 724/3/6 727/3/6
f 727/3/6 724/3/6 728/3/6
f 725/3/6 726/3/6 729/3/6
f 729/3/6 726/3/6 730/3/6
f 728/3/6 729/3/6 731/3/6
f 731/3/6 729/3/6 732/3/6
f 733/3/6 734/3/6 736/3/6
f 736/3/6 734/3/6 737/3/6
f 735/3/6 736/3/6 739/3/6
f 739/3/6 736/3/6 740/3/6
f 737/3/6 738/3/6 741/3/6
f 741/3/6 738/3/6 742/3/6
f 743/3/6 744/3/6 747/3/6
f 747/3/6 744/3/6 748/3/6
f 745/3/6 746/3/6 749/3/6
f 749/3/6 746/3/6 750/3/6
f 748/3/6 749/3/6 751/3/6
f 751/3/6 749/3/6 752/3/6
f 753/3/6 754/3/6 756/3/6
f 756/3/6 754/3/6 757/3/6
f 755/3/6 756/3/6 759/3/6
f 759/3/6 756/3/6 760/3/6
f 757/3/6 758/3/6 761/3/6
f 761/3/6 758/3/6 762/3/6
f 763/3/6 764/3/6 767/3/6
f 767/3/6 764/3/6 768/3/6
f 765/3/6 766/3/6 769/3/6
f 769/3/6 766/3/6 770/3/6
f 768/3/6 769/3/6 771/3/6
f 771/3/6 769/3/6 772/3/6
f 773/3/6 774/3/6 776/3/6
f 776/3/6 774/3/6 777/3/6
f 775/3/6 776/3/6 779/3/6
f 779/3/6 776/3/6 780/3/6
f 777/3/6 778/3/6 781/3/6
f 781/3/6 778/3/6 782/3/6
f 783/3/6 784/3/6 787/3/6
f 787/3/6 784/3/6 788/3/6
f 785/3/6 786/3/6 789/3/6
f 789/3/6 786/3/6 790/3/6
f 788/3/6 789/3/6 791/3/6
f 791/3/6 789/3/6 792/3/6
f 793/3/6 794/3/6 796/3/6
f 796/3/6 794/3/6 797/3/6
f 795/3/6 796/3/6 799/3/6
f 799/3/6 796/3/6 800/3/6
f 797/3/6 798/3/6 801/3/6
f 801/3/6 798/3/6 802/3/6
f 803/3/6 804/3/6 807/3/6
f 807/3/6 804/3/6 808/3/6
f 805/3/6 806/3/6 809/3/6
f 809/3/6 806/3/6 810/3/6
f 808/3/6 809/3/6 811/3/6
f 811/3/6 809/3/6 812/3/6
f 813/2/6 814/2/6 815/2/6
f 815/2/6 814/2/6 816/2/6
f 816/2/6 814/2/6 817/2/6
f 817/2/6 814/2/6 818/2/6
f 818/2/6 814/2/6 819/2/6
f 819/2/6 814/2/6 820/2/6
f 817/3/6 818/3/6 822/3/6
f 822/3/6 818/3/6 823/3/6
f 821/3/6 822/3/6 825/3/6
f 825/3/6 822/3/6 826/3/6
f 823/3/6 824/3/6 827/3/6
f 827/3/6 824/3/6 828/3/6
f 829/3/6 830/3/6 833/3/6
f 833/3/6 830/3/6 834/3/6
f 831/3/6 832/3/6 835/3/6
f 835/3/6 832/3/6 836/3/6
f 813/2/6 815/2/6 837/2/6
f 834/3/6 835/3/6 839/3/6
f 839/3/6 835/3/6 840/3/6
f 820/2/6 814/2/6 842/2/6
f 840/2/6 841/2/6 843/2/6
f 841/2/6 842/2/6 843/2/6
f 839/2/6 840/2/6 843/2/6
f 838/2/6 839/2/6 843/2/6
f 837/2/6 838/2/6 843/2/6
f 813/2/6 837/2/6 843/2/6
f 842/2/6 814/2/6 844/2/6
f 843/2/6 842/2/6 844/2/6
f 845/3/6 846/3/6 849/3/6
f 849/3/6 846/3/6 850/3/6
f 847/3/6 848/3/6 851/3/6
f 851/3/6 848/3/6 852/3/6
f 853/3/6 854/3/6 857/3/6
f 857/3/6 854/3/6 858/3/6
f 855/3/6 856/3/6 859/3/6
f 859/3/6 856/3/6 860/3/6
f 861/3/6 862/3/6 865/3/6
f 865/3/6 862/3/6 866/3/6
f 863/3/6 864/3/6 867/3/6
f 867/3/6 864/3/6 868/3/6
f 869/3/6 870/3/6 873/3/6
f 873/3/6 870/3/6 874/3/6
f 871/3/6 872/3/6 875/3/6
f 875/3/6 872/3/6 876/3/6
f 877/1/6 878/1/6 879/1/6
f 879/1/6 878/1/6 880/1/6
f 877/1/6 879/1/6 881/1/6
f 877/1/6 881/1/6 883/1/6
f 881/1/6 882/1/6 883/1/6
f 883/1/6 882/1/6 884/1/6
